<svg xmlns="http://www.w3.org/2000/svg" xmlns:xlink="http://www.w3.org/1999/xlink"><defs><style>.cls-1{fill:#d4a358;}</style><style>.cls-1{fill:#d4a358;}</style><style>.cls-1{fill:#a17830;}</style><style>.cls-1{fill:#d4a358;}</style><style>.cls-1{fill:#d4a358;}</style><linearGradient id="New_Gradient_Swatch_1" x1="503.07" y1="1014.85" x2="503.07" y2="976.87" gradientUnits="userSpaceOnUse"><stop offset="0" stop-color="#a17830"/><stop offset="0.15" stop-color="#af843b"/><stop offset="0.44" stop-color="#c3954b"/><stop offset="0.72" stop-color="#d09f55"/><stop offset="1" stop-color="#d4a358"/></linearGradient><linearGradient id="New_Gradient_Swatch_1" x1="283.48" y1="176.96" x2="283.48" y2="77.71" gradientUnits="userSpaceOnUse"><stop offset="0" stop-color="#a17830"/><stop offset="0.15" stop-color="#af843b"/><stop offset="0.44" stop-color="#c3954b"/><stop offset="0.72" stop-color="#d09f55"/><stop offset="1" stop-color="#d4a358"/></linearGradient><linearGradient id="linear-gradient" x1="286.09" y1="205.51" x2="286.09" y2="21.99" gradientUnits="userSpaceOnUse"><stop offset="0" stop-color="#a17830"/><stop offset="0.15" stop-color="#af843b"/><stop offset="0.44" stop-color="#c3954b"/><stop offset="0.72" stop-color="#d09f55"/><stop offset="1" stop-color="#d4a358"/></linearGradient></defs><symbol id="svg-icon-1" viewBox="0 0 16.4 16.17"><title>icon-1</title><path d="M400,122.58l-8.11,4.52,0,1.81h1v6h14.32v-6h1v-1.78Zm-5.58,10.64v-5.79l5.58-3.11,5.61,3.18,0,5.7Z" transform="translate(-391.9 -122.58)" fill="#35383a"/><path d="M393.53,137.52a.62.62,0,1,1-.57.62.55.55,0,0,1,.57-.62m0,1c.13,0,.32-.08.32-.41s-.19-.41-.32-.41-.32.08-.32.41.19.41.32.41" transform="translate(-391.9 -122.58)" fill="#35383a"/><path d="M394.79,138.72h-.25v-1.17h.54a.34.34,0,0,1,.37.37.36.36,0,0,1-.38.37h-.28Zm.23-.63c.18,0,.18-.13.18-.18s-.06-.16-.22-.16h-.19v.34Z" transform="translate(-391.9 -122.58)" fill="#35383a"/><path d="M396.13,138.72h-.25v-1.17h.54a.34.34,0,0,1,.37.37.36.36,0,0,1-.38.37h-.28Zm.23-.63c.18,0,.18-.13.18-.18s-.06-.16-.22-.16h-.19v.34Z" transform="translate(-391.9 -122.58)" fill="#35383a"/><path d="M397.74,137.52a.62.62,0,1,1-.57.62.55.55,0,0,1,.57-.62m0,1c.13,0,.32-.08.32-.41s-.19-.41-.32-.41-.32.08-.32.41.19.41.32.41" transform="translate(-391.9 -122.58)" fill="#35383a"/><path d="M398.75,137.55h.59a.33.33,0,0,1,.37.33.28.28,0,0,1-.18.28c.1,0,.15.08.15.3s0,.21.05.23v0h-.27a.76.76,0,0,1,0-.24c0-.16,0-.22-.19-.22H399v.46h-.24Zm.53.51c.13,0,.19,0,.19-.16s0-.15-.17-.15H399v.31Z" transform="translate(-391.9 -122.58)" fill="#35383a"/><polygon points="8.75 16.14 8.5 16.14 8.5 15.18 8.15 15.18 8.15 14.97 9.11 14.97 9.11 15.18 8.75 15.18 8.75 16.14" fill="#35383a"/><path d="M402.34,138.31c0,.31-.19.44-.48.44a.51.51,0,0,1-.37-.14.42.42,0,0,1-.09-.28v-.77h.25v.76a.21.21,0,0,0,.21.23c.17,0,.24-.08.24-.22v-.77h.25Z" transform="translate(-391.9 -122.58)" fill="#35383a"/><polygon points="11.65 14.97 11.88 14.97 11.88 16.14 11.64 16.14 11.16 15.3 11.15 15.3 11.15 16.14 10.92 16.14 10.92 14.97 11.18 14.97 11.65 15.78 11.65 15.78 11.65 14.97" fill="#35383a"/><rect x="12.35" y="14.97" width="0.25" height="1.17" fill="#35383a"/><polygon points="13.57 16.14 13.32 16.14 13.32 15.18 12.97 15.18 12.97 14.97 13.93 14.97 13.93 15.18 13.57 15.18 13.57 16.14" fill="#35383a"/><polygon points="14.87 16.14 14.63 16.14 14.63 15.7 14.22 14.97 14.51 14.97 14.75 15.48 14.99 14.97 15.27 14.97 14.87 15.7 14.87 16.14" fill="#35383a"/><polygon points="1.97 13.47 1.35 13.47 1.35 13.72 1.93 13.72 1.93 13.92 1.35 13.92 1.35 14.23 2 14.23 2 14.44 1.11 14.44 1.11 13.27 1.97 13.27 1.97 13.47" fill="#35383a"/><path d="M395.09,137.1,395,137a.63.63,0,0,1-.3.08.62.62,0,1,1,.56-.62.65.65,0,0,1-.12.42l.13.12Zm-.3-.54.12.12a.52.52,0,0,0,.05-.25c0-.32-.19-.41-.32-.41s-.32.08-.32.41.19.41.32.41a.31.31,0,0,0,.13,0l-.12-.11Z" transform="translate(-391.9 -122.58)" fill="#35383a"/><path d="M396.38,136.61c0,.31-.19.44-.48.44a.5.5,0,0,1-.37-.15.42.42,0,0,1-.09-.28v-.77h.25v.76c0,.16.09.24.21.24s.24-.08.24-.22v-.77h.25Z" transform="translate(-391.9 -122.58)" fill="#35383a"/><path d="M396.75,137h-.26l.42-1.17h.28l.41,1.17h-.26l-.07-.24h-.43Zm.14-.44h.3l-.15-.46h0Z" transform="translate(-391.9 -122.58)" fill="#35383a"/><polygon points="6.15 14.22 6.73 14.22 6.73 14.43 5.91 14.43 5.91 13.27 6.15 13.27 6.15 14.22" fill="#35383a"/><polygon points="8.12 13.91 8.12 14.43 7.88 14.43 7.88 13.27 8.12 13.27 8.12 13.71 8.58 13.71 8.58 13.27 8.82 13.27 8.82 14.43 8.58 14.43 8.58 13.91 8.12 13.91" fill="#35383a"/><path d="M401.47,135.81a.62.62,0,1,1-.56.62.55.55,0,0,1,.56-.62m0,1c.13,0,.32-.08.32-.41s-.18-.41-.32-.41-.32.08-.32.41.19.41.32.41" transform="translate(-391.9 -122.58)" fill="#35383a"/><path d="M403.16,136.61c0,.31-.18.44-.48.44a.49.49,0,0,1-.37-.15.4.4,0,0,1-.09-.28v-.77h.25v.76c0,.16.09.24.2.24s.24-.08.24-.22v-.77h.25Z" transform="translate(-391.9 -122.58)" fill="#35383a"/><path d="M403.57,136.65c0,.07,0,.19.25.19s.24,0,.24-.15-.09-.11-.21-.14l-.13,0c-.19,0-.37-.09-.37-.34s.07-.36.45-.36a.39.39,0,0,1,.45.38H404c0-.05,0-.18-.24-.18s-.2,0-.2.14.08.11.12.12l.28.07c.16,0,.31.11.31.32s-.36.38-.46.38c-.43,0-.5-.25-.5-.39Z" transform="translate(-391.9 -122.58)" fill="#35383a"/><rect x="12.56" y="13.26" width="0.24" height="1.17" fill="#35383a"/><polygon points="13.75 13.27 13.97 13.27 13.97 14.43 13.73 14.43 13.25 13.6 13.25 13.6 13.25 14.43 13.03 14.43 13.03 13.27 13.28 13.27 13.74 14.08 13.75 14.08 13.75 13.27" fill="#35383a"/><path d="M406.65,136.39h.49V137H407l0-.14a.43.43,0,0,1-.36.18.54.54,0,0,1-.53-.61.56.56,0,0,1,.57-.62.46.46,0,0,1,.51.4h-.24a.26.26,0,0,0-.26-.19c-.17,0-.33.12-.33.42s.17.4.34.4a.29.29,0,0,0,.28-.26h-.27Z" transform="translate(-391.9 -122.58)" fill="#35383a"/><rect x="5.34" y="5.17" width="5.48" height="1.8" fill="#35383a"/><rect x="5.34" y="7.67" width="5.48" height="1.8" fill="#35383a"/></symbol><symbol id="svg-icon-2" viewBox="0 0 15.72 15.17"><title>icon-2</title><g id="layer1"><path id="path1575" d="M260.35,136.08h-.1a3.06,3.06,0,0,0-2.19,2.91c-.16,1.14.34,2.6,1.59,2.86a1.22,1.22,0,0,0,.55,0,3.41,3.41,0,0,0,2-3.77A2,2,0,0,0,260.35,136.08Zm-5.69.06a1.92,1.92,0,0,0-1.62,1.67c-.28,1.58.44,3.55,2.08,4a1.28,1.28,0,0,0,.47,0,2.22,2.22,0,0,0,1.53-2.44,3.33,3.33,0,0,0-2.1-3.24A1.3,1.3,0,0,0,254.65,136.14Zm9.33,4.49a3.09,3.09,0,0,0-2.58,2.88c-.19,1,.33,2.28,1.43,2.35,1.54,0,2.6-1.67,2.64-3.1A1.84,1.84,0,0,0,264,140.64Zm-12.65.32a1.46,1.46,0,0,0-1.42,1,3.33,3.33,0,0,0,2.31,4.15A1.45,1.45,0,0,0,253.8,145a3.45,3.45,0,0,0-1.76-3.83A1.46,1.46,0,0,0,251.34,141Zm6.48,3a4.38,4.38,0,0,0-3.21,1.53,8.77,8.77,0,0,0-1.8,3.64,1.6,1.6,0,0,0,1.45,2.08c1.24,0,2.3-.82,3.54-.88a5.85,5.85,0,0,1,2.92.74,1.76,1.76,0,0,0,2.32-.65,3.41,3.41,0,0,0-.54-2.6,9.83,9.83,0,0,0-3-3.39A3.17,3.17,0,0,0,257.82,144Z" transform="translate(-249.78 -136.08)" fill="#35383a"/></g></symbol><symbol id="svg-icon-3" viewBox="0 0 14.87 16.85"><title>icon-3</title><path d="M271.32,149a5.46,5.46,0,0,1-2,2.26,5.45,5.45,0,0,1-7.63-7.32,5.44,5.44,0,0,1,2-2l.15,1a4.51,4.51,0,0,0-.61,6.86,4.48,4.48,0,0,0,6,.36,4.46,4.46,0,0,0,1.59-2.45Zm4.54.24-3,1.22L270.67,145h-5.84l-.85-8.47a1.25,1.25,0,0,1,.38-.93,1.29,1.29,0,0,1,1.83,0,1.26,1.26,0,0,1,.38.92,1.36,1.36,0,0,1-.31.93,1,1,0,0,1-.83.36l.31,3.49h3.95v1.28h-3.82L266,144h5.36l2.16,5,1.85-.73Z" transform="translate(-260.98 -135.24)" fill="#35383a"/></symbol><symbol id="svg-icon-4" viewBox="0 0 16.11 16.15"><title>icon-4</title><path d="M285,143.66h-.48V143c0-.58-.44-.7-.81-.7h-1.3a1.06,1.06,0,0,1-.95-.55,1.34,1.34,0,0,1-.14-.93,1.54,1.54,0,0,1-.9-.41,1.44,1.44,0,0,1-.45-1,1.41,1.41,0,0,1,1.45-1.47v.48a1,1,0,0,0-.66,1.67,1.17,1.17,0,0,0,.9.29.24.24,0,0,1,.22.36.83.83,0,0,0,0,.8.58.58,0,0,0,.53.3h1.3A1.15,1.15,0,0,1,285,143v.66Z" transform="translate(-272.45 -135.59)" fill="#35383a"/><path d="M285.72,143.66h-.48v-.89a1.55,1.55,0,0,0-1.54-1.62h-.77a.24.24,0,0,1-.2-.38A1.42,1.42,0,0,0,283,140a1.12,1.12,0,0,0-1.21-1.11v-.48A1.61,1.61,0,0,1,283.5,140a1.77,1.77,0,0,1-.15.69h.35a2,2,0,0,1,2,2.11v.89Z" transform="translate(-272.45 -135.59)" fill="#35383a"/><polygon points="12.53 9.77 12.04 9.77 12.04 8.3 12.53 8.3 12.53 9.77" fill="#35383a"/><polygon points="13.28 9.77 12.8 9.77 12.8 8.3 13.28 8.3 13.28 9.77" fill="#35383a"/><polygon points="11.77 9.77 11.77 8.33 8.58 8.33 10.02 9.77 11.77 9.77" fill="#35383a"/><polygon points="2.75 8.33 2.75 9.77 8.99 9.77 7.55 8.33 2.75 8.33" fill="#35383a"/><path d="M286.2,138a8.09,8.09,0,1,0,2.36,5.71A8,8,0,0,0,286.2,138Zm.56,5.71a6.25,6.25,0,0,1-1.2,3.69l-8.74-8.76a6.25,6.25,0,0,1,9.95,5.07Zm-12.52,0a6.25,6.25,0,0,1,1.24-3.75l8.76,8.78a6.25,6.25,0,0,1-10-5Z" transform="translate(-272.45 -135.59)" fill="#35383a"/></symbol><symbol id="svg-icon-bicycle" viewBox="0 0 77.25 44.74"><title>Asset 5</title><g id="Layer_2" data-name="Layer 2"><g id="Content"><path class="cls-1" d="M62.43,15.28a14.49,14.49,0,0,0-7.78,2.13L49.74,11.3l.83-2.13c2.87-.46,3.61-1.2,4.35-2s.65-1.39-.46-1.39-7.22.28-11.3.46c-.83,0-1.39.56-.74,1.2a18.59,18.59,0,0,0,5.19,1.85l-.28.93H26.68l1.48-5.28L27,2.78l1-1.11h5.09L33,0H27.23L24.54,3l1.3,2.22L21.67,16.95a15,15,0,0,0-6.85-1.67A14.73,14.73,0,1,0,29.55,30,15.12,15.12,0,0,0,23.9,18.34l.65-1.76L39.18,33.16a2.16,2.16,0,0,0,1.76,2.78l1,3.8h-.83v1.11l3.24-.19v-1H43.25l-.74-3.8a3.23,3.23,0,0,0,1.2-1.3l4.45-.74A15,15,0,0,0,62.43,44.74a14.73,14.73,0,1,0,0-29.45ZM26.77,30A11.95,11.95,0,1,1,14.82,18.06a11.82,11.82,0,0,1,5.93,1.57c-1.11,3.71-2.32,5.65-5.93,8.52a1.61,1.61,0,0,0-1.48,1.57,1.51,1.51,0,0,0,1.57,1.57,1.49,1.49,0,0,0,1.48-1.57,17.78,17.78,0,0,0,6.48-8.52A11.79,11.79,0,0,1,26.77,30ZM41,29.36l-.28-1.76h.65l-.09-1.11H38.53l.09,1.11h.74l.19,1.85s-13.89-15.65-14-15.75l.28-.93H46.5Zm6.76,1.95-4.72.46,5.83-17.6,3.71,4.45A14.86,14.86,0,0,0,47.7,30C47.7,30.38,47.79,30.94,47.79,31.31Zm6.48-10.47,6.39,8.24-10.1,1.67C50.57,27.14,51,23.71,54.28,20.84ZM62.43,42a12,12,0,0,1-11.49-8.71l10.93-2a1.57,1.57,0,0,0,.65.09,1.51,1.51,0,0,0,1.57-1.57,1.61,1.61,0,0,0-1.48-1.57l-6.48-8.61a13.42,13.42,0,0,1,6.3-1.48,11.95,11.95,0,0,1,0,23.9Z"/></g></g></symbol><symbol id="svg-icon-cake" viewBox="0 0 45.9 44.59"><title>Asset 3</title><g id="Layer_2" data-name="Layer 2"><g id="Content"><path class="cls-1" d="M45.9,34.34c0-1.22-2.65-1.84-2.65-1.84V32a1.38,1.38,0,0,0-.07-.44c0,.46,0,1.92,0,1.92,0,1.87-9.06,3.38-20.23,3.38S2.72,35.35,2.72,33.48c0,0,0-1.46,0-1.92a1.37,1.37,0,0,0-.07.44v.51S0,33.12,0,34.34v1.18l.71,1.33a1,1,0,0,0-.71.92v2s1.84,4.79,21.72,4.79h2.45c19.89,0,21.73-4.79,21.73-4.79v-2a1,1,0,0,0-.71-.92l.71-1.33Z"/><path class="cls-1" d="M22.95,34.75c10.92,0,19.8-1.45,20.19-3.25a2.5,2.5,0,0,0-.91-1A6,6,0,0,1,40.29,26c0-1.66-10.31-1.73-15-1.67v-1c3.76-.06,10.82-.3,15.08-1.31a19.76,19.76,0,0,0-.92-5.81c-.92-2.45-6.24-4.6-10.81-5.41C25.19,10.2,26,9.49,26,8.57V7.65A2.6,2.6,0,0,1,24.89,5.3V1.73h1.94v-1L26.52.21,23.25,0V0h-.51V0L19.38.21l-.31.51v1H21V5.3a2.6,2.6,0,0,1-1.12,2.35v.92c0,.92.81,1.63-2.65,2.24-4.58.81-9.89,3-10.81,5.41A19.8,19.8,0,0,0,5.51,22c4.23,1,11.27,1.25,15.08,1.31v1c-4.8,0-15,0-15,1.67a6,6,0,0,1-1.94,4.49,2.5,2.5,0,0,0-.92,1C3.15,33.3,12,34.75,22.95,34.75ZM20.6,24.37A1.41,1.41,0,0,0,22,25.73h1.89a1.41,1.41,0,0,0,1.4-1.36c7.78.11,13.77.74,13.77,1.51s-7.22,1.53-16.12,1.53S6.83,26.72,6.83,25.88,12.82,24.48,20.6,24.37Z"/></g></g></symbol><symbol id="svg-icon-restaurants" viewBox="0 0 55.04 51.55"><title>Asset 1</title><g id="Layer_2" data-name="Layer 2"><g id="Content"><path class="cls-1" d="M37.72,23.68a4.23,4.23,0,0,0,4.37-1.45l1.53-1.6L54.85,8.85a.59.59,0,0,0,0-.88A.57.57,0,0,0,54,8L42.9,18.37l0,0c-.18.18-.59.08-.9-.24s-.42-.72-.24-.9h0L52.34,6.34a.61.61,0,0,0,0-.92.6.6,0,0,0-.91,0L40.31,15.79h0v0c-.18.18-.56.08-.87-.21s-.39-.69-.21-.87h0l10.43-11a.6.6,0,0,0,0-.91.61.61,0,0,0-.92,0L37.77,13.26h0v0c-.18.18-.59.08-.9-.24s-.42-.72-.24-.9l0,0,10.43-11a.57.57,0,0,0,0-.87.58.58,0,0,0-.88,0L32.79,12.93a4.23,4.23,0,0,0-1.45,4.37,18.67,18.67,0,0,0,1.11,2.19L27,24.75,22.18,19.9,4.65,2.37a2.66,2.66,0,0,0-3.76,0l-.21.21c-2.95,2.95,4.23,12.16,9.8,17.73s8.27,3.16,8.27,3.16l1,1,2.74,2.85.92,1L4.25,46.85a2.66,2.66,0,0,0,0,3.76l.08.08h0l.08.08a2.66,2.66,0,0,0,3.76,0L26.68,31.69,43.52,49.17a2.66,2.66,0,0,0,3.76,0l.21-.21a2.66,2.66,0,0,0,0-3.76L30.27,28l5.26-5.42A18.8,18.8,0,0,0,37.72,23.68Z"/></g></g></symbol><symbol id="svg-icon-shops" viewBox="0 0 44.22 56.61"><title>Asset 2</title><g id="Layer_2" data-name="Layer 2"><g id="Content"><path class="cls-1" d="M35.15,16.27H32.79C32.79,9,27.94,2.36,22,2.36S11.16,9,11.16,16.27H8.8C8.8,7.79,14.71,0,22,0S35.15,7.79,35.15,16.27m9.08,2.23c0-.23-.28-.41-.62-.41H.62c-.34,0-.62.18-.62.41V56.2c0,.23.28.41.62.41h43c.34,0,.62-.18.62-.41Z"/></g></g></symbol><symbol id="svg-icon-ticket" viewBox="0 0 60.38 34.06"><title>Asset 4</title><g id="Layer_2" data-name="Layer 2"><g id="Content"><path class="cls-1" d="M55,17.18a5.42,5.42,0,0,1,4.75-5.38.77.77,0,0,0,.67-.76V2.32A2.32,2.32,0,0,0,58.06,0H2.32A2.32,2.32,0,0,0,0,2.32v8.42a.77.77,0,0,0,.67.76,5.42,5.42,0,0,1,4.75,5.38A5.42,5.42,0,0,1,.67,22.26.77.77,0,0,0,0,23v8.71a2.32,2.32,0,0,0,2.32,2.32H58.06a2.32,2.32,0,0,0,2.32-2.32V23.32a.77.77,0,0,0-.67-.76A5.42,5.42,0,0,1,55,17.18m-4.64,8.39a3.08,3.08,0,0,1-3.08,3.08H13.14a3.08,3.08,0,0,1-3.08-3.08V8.5a3.08,3.08,0,0,1,3.08-3.08H47.24A3.08,3.08,0,0,1,50.32,8.5ZM47.24,7.74H13.14a.76.76,0,0,0-.76.76V25.56a.76.76,0,0,0,.76.76H47.24a.76.76,0,0,0,.76-.76V8.5a.76.76,0,0,0-.76-.76m-9.87,8.2L33.9,18.7a.53.53,0,0,0-.15.46L35,23.35a.6.6,0,0,1-.87.63l-3.65-2.41a.52.52,0,0,0-.24-.06.52.52,0,0,0-.24.06L26.29,24a.6.6,0,0,1-.87-.63l1.21-4.19a.52.52,0,0,0-.15-.46L23,15.94a.6.6,0,0,1,.33-1l4.4-.12a.52.52,0,0,0,.39-.29l1.51-4.18a.6.6,0,0,1,1.07,0l1.51,4.18a.52.52,0,0,0,.39.29l4.4.12a.6.6,0,0,1,.33,1"/></g></g></symbol><symbol id="svg-local" viewBox="0 0 19.82 24.93"><title>local</title><path d="M508.44,1046.8a9.89,9.89,0,0,0-16.27,0,9.83,9.83,0,0,0-1.15,9.09,8.79,8.79,0,0,0,1.42,2.37l7.86,9.2,7.82-9.2a7.43,7.43,0,0,0,1.42-2.37A9.71,9.71,0,0,0,508.44,1046.8Zm-8.14,8.77a4,4,0,1,1,4-4A4,4,0,0,1,500.3,1055.57Z" transform="translate(-490.39 -1042.54)" fill="#fff"/></symbol><symbol id="svg-location" viewBox="0 0 66.5 83.64"><title>location</title><path d="M530.4,975.78a33.2,33.2,0,0,0-54.61,0,33,33,0,0,0-3.84,30.49,29.48,29.48,0,0,0,4.77,8l26.38,30.89,26.25-30.89a24.93,24.93,0,0,0,4.77-8A32.57,32.57,0,0,0,530.4,975.78Z" transform="translate(-469.82 -961.47)" fill="#fff"/><path d="M507.3,1009.22a11.43,11.43,0,0,0,3.06,1.42,11.69,11.69,0,0,0,3.4.51,10.85,10.85,0,0,0,2.76-.34,6,6,0,0,0,2.09-.93,4.06,4.06,0,0,0,1.1-1.21,7.92,7.92,0,0,0,.73-1.91l.37,0a9,9,0,0,1-.57,2.88,7.23,7.23,0,0,1-1.51,2.27q-2.75,2.89-7.94,2.89a10.64,10.64,0,0,1-5.08-1.1,14,14,0,0,1-3.95-3.63l-.14-.16a15,15,0,0,1-4.21-.64,17.18,17.18,0,0,1-4.1-1.79,16.14,16.14,0,0,1-5.87-5.93,16.31,16.31,0,0,1-.43-15.16,16.84,16.84,0,0,1,4.85-5.79,18,18,0,0,1,5.1-2.81,16.57,16.57,0,0,1,5.56-1,16.12,16.12,0,0,1,6.37,1.32,18.25,18.25,0,0,1,7.85,6.72,15.33,15.33,0,0,1,2.49,8.45,15.69,15.69,0,0,1-1.05,5.67,16.79,16.79,0,0,1-3,5,17,17,0,0,1-3.46,3.1A19.36,19.36,0,0,1,507.3,1009.22Zm-12.88-4a12.06,12.06,0,0,1,3.35-.48,10,10,0,0,1,3.95.81,11.2,11.2,0,0,1,1.66.9q.85.55,2.77,1.94l.21.16a11.25,11.25,0,0,0,2.6-1.89,14,14,0,0,0,2.13-2.84,18.69,18.69,0,0,0,2.56-9.89,24.38,24.38,0,0,0-1-7,16.56,16.56,0,0,0-2.83-5.63,9.5,9.5,0,0,0-3.29-2.75,9.6,9.6,0,0,0-4.24-.88,9.77,9.77,0,0,0-4.26.87,9.29,9.29,0,0,0-3.29,2.76,16.83,16.83,0,0,0-2.8,5.62,24.29,24.29,0,0,0-1,7,20.68,20.68,0,0,0,.83,6.11A17.86,17.86,0,0,0,494.42,1005.21Zm6.67,4.11-.16-.18a15.36,15.36,0,0,0-2.75-2.72,4,4,0,0,0-2.31-.78,3,3,0,0,0-1,.18,11,11,0,0,0,2.85,2.47A9.17,9.17,0,0,0,501.09,1009.31Z" transform="translate(-469.82 -961.47)" fill="url(#New_Gradient_Swatch_1)"/></symbol><symbol id="svg-logo-text" viewBox="0 0 30 32.15"><title>logo-text</title><path d="M283.58,155.15a9.67,9.67,0,0,0,2.59,1.21,9.9,9.9,0,0,0,2.88.44,9.18,9.18,0,0,0,2.33-.29,5.08,5.08,0,0,0,1.77-.78,3.44,3.44,0,0,0,.93-1,6.7,6.7,0,0,0,.61-1.62l.31,0a7.64,7.64,0,0,1-.48,2.43,6.12,6.12,0,0,1-1.28,1.92q-2.32,2.44-6.72,2.44a9,9,0,0,1-4.3-.93,11.88,11.88,0,0,1-3.34-3.07l-.12-.14a12.72,12.72,0,0,1-3.56-.54,14.54,14.54,0,0,1-3.47-1.51,13.66,13.66,0,0,1-5-5,13.81,13.81,0,0,1-.36-12.83,14.25,14.25,0,0,1,4.1-4.9,15.22,15.22,0,0,1,4.32-2.37,14,14,0,0,1,4.71-.83,13.64,13.64,0,0,1,5.39,1.11,15.44,15.44,0,0,1,6.64,5.69,13,13,0,0,1,2.11,7.15,13.28,13.28,0,0,1-.89,4.8,14.21,14.21,0,0,1-2.57,4.25,14.37,14.37,0,0,1-2.93,2.62A16.39,16.39,0,0,1,283.58,155.15Zm-10.9-3.4a10.2,10.2,0,0,1,2.83-.41,8.42,8.42,0,0,1,3.34.68,9.48,9.48,0,0,1,1.41.76q.72.47,2.34,1.64l.18.14A9.52,9.52,0,0,0,285,153a11.89,11.89,0,0,0,1.81-2.4,15.81,15.81,0,0,0,2.17-8.37,20.63,20.63,0,0,0-.85-6,14,14,0,0,0-2.39-4.77,8,8,0,0,0-2.78-2.33,8.12,8.12,0,0,0-3.58-.74,8.27,8.27,0,0,0-3.6.73,7.87,7.87,0,0,0-2.78,2.34,14.24,14.24,0,0,0-2.37,4.76,20.56,20.56,0,0,0-.85,6,17.5,17.5,0,0,0,.7,5.17A15.12,15.12,0,0,0,272.68,151.75Zm5.64,3.48-.14-.16a13,13,0,0,0-2.32-2.3,3.39,3.39,0,0,0-2-.66,2.53,2.53,0,0,0-.82.16,9.34,9.34,0,0,0,2.41,2.09A7.76,7.76,0,0,0,278.32,155.23Z" transform="translate(-265 -127.77)" fill="#fff"/></symbol><symbol id="svg-logo-white" viewBox="0 0 216.33 131.97"><title>logo-white</title><path d="M294.51,162.25a29.86,29.86,0,0,0,8,3.72,30.56,30.56,0,0,0,8.89,1.35,28.36,28.36,0,0,0,7.21-.89,15.69,15.69,0,0,0,5.46-2.42,10.61,10.61,0,0,0,2.87-3.15,20.68,20.68,0,0,0,1.9-5l1,.12a23.59,23.59,0,0,1-1.48,7.51,18.89,18.89,0,0,1-3.95,5.93Q317.19,177,303.62,177a27.79,27.79,0,0,1-13.26-2.87q-4.83-2.63-10.31-9.48l-.36-.43a39.26,39.26,0,0,1-11-1.66,44.9,44.9,0,0,1-10.7-4.68,42.16,42.16,0,0,1-15.35-15.51,42.63,42.63,0,0,1-1.11-39.61,44,44,0,0,1,12.66-15.12,47,47,0,0,1,13.33-7.33A43.29,43.29,0,0,1,282,77.71a42.11,42.11,0,0,1,16.64,3.44,47.67,47.67,0,0,1,20.5,17.56,40.06,40.06,0,0,1,6.51,22.09,41,41,0,0,1-2.74,14.81A43.88,43.88,0,0,1,315,148.73a44.36,44.36,0,0,1-9,8.09A50.59,50.59,0,0,1,294.51,162.25Zm-33.65-10.49a31.5,31.5,0,0,1,8.75-1.27,26,26,0,0,1,10.31,2.11,29.26,29.26,0,0,1,4.34,2.35q2.23,1.44,7.23,5.06l.54.42a29.39,29.39,0,0,0,6.78-5,36.7,36.7,0,0,0,5.58-7.42q6.7-11,6.7-25.83a63.7,63.7,0,0,0-2.62-18.4,43.27,43.27,0,0,0-7.39-14.72,24.83,24.83,0,0,0-8.59-7.18,25.08,25.08,0,0,0-11.07-2.3A25.53,25.53,0,0,0,270.3,81.9a24.28,24.28,0,0,0-8.59,7.21,44,44,0,0,0-7.33,14.7,63.46,63.46,0,0,0-2.62,18.38,54,54,0,0,0,2.17,16A46.67,46.67,0,0,0,260.86,151.76Zm17.43,10.73-.42-.48a40.13,40.13,0,0,0-7.18-7.11,10.48,10.48,0,0,0-6-2.05,7.8,7.8,0,0,0-2.53.48,28.84,28.84,0,0,0,7.45,6.45A24,24,0,0,0,278.29,162.49Z" transform="translate(-172.02 -77.71)" fill="url(#New_Gradient_Swatch_1)"/><path d="M175.32,200.57H172v-1h7.73v1h-3.3v8.81h-1.13Z" transform="translate(-172.02 -77.71)" fill="#35383a"/><path d="M195.51,199.54h1.11v4.37h5.68v-4.37h1.11v9.84H202.3V205h-5.68v4.43h-1.11Z" transform="translate(-172.02 -77.71)" fill="#35383a"/><path d="M220.44,199.54h7.12v1h-6v3.36h5.37v1h-5.37v3.45h6.08v1h-7.19Z" transform="translate(-172.02 -77.71)" fill="#35383a"/><path d="M262.18,208.5a5,5,0,0,1-8.11-4v0a5,5,0,1,1,10,0s0,0,0,0a5.1,5.1,0,0,1-1.18,3.3l1.31,1.08-.76.83Zm-.81-.72-1.83-1.56.75-.83,1.81,1.65a4.15,4.15,0,0,0,.86-2.55v0a3.92,3.92,0,0,0-3.88-4.06,3.87,3.87,0,0,0-3.85,4v0a3.91,3.91,0,0,0,3.88,4.06A3.71,3.71,0,0,0,261.36,207.78Z" transform="translate(-172.02 -77.71)" fill="#35383a"/><path d="M281.3,205.26v-5.72h1.11v5.65c0,2.12,1.13,3.32,3,3.32s3-1.1,3-3.25v-5.72h1.11v5.64c0,2.87-1.65,4.36-4.11,4.36S281.3,208,281.3,205.26Z" transform="translate(-172.02 -77.71)" fill="#35383a"/><path d="M308.27,199.54h1.11v9.84h-1.11Z" transform="translate(-172.02 -77.71)" fill="#35383a"/><path d="M329.27,199.54h1l6.2,7.89v-7.89h1.08v9.84h-.89l-6.36-8.07v8.07h-1.08Z" transform="translate(-172.02 -77.71)" fill="#35383a"/><path d="M354.51,204.49v0a5,5,0,0,1,5-5.09,5.11,5.11,0,0,1,3.84,1.56l-.76.82a4.28,4.28,0,0,0-3.09-1.35,3.86,3.86,0,0,0-3.81,4v0a3.89,3.89,0,0,0,3.81,4.06,4.28,4.28,0,0,0,3.18-1.42l.73.72a5.12,5.12,0,0,1-3.94,1.73A4.91,4.91,0,0,1,354.51,204.49Z" transform="translate(-172.02 -77.71)" fill="#35383a"/><path d="M383.13,205.49,379,199.54h1.35l3.32,4.92,3.35-4.92h1.29l-4.09,5.93v3.91h-1.12Z" transform="translate(-172.02 -77.71)" fill="#35383a"/></symbol><symbol id="svg-logo-with-text" viewBox="0 0 612 792">
<style type="text/css">
	.st0{fill:url(#SVGID_1_);}
	.st1{fill:#36393B;}
</style>
<g>
	<g>
		<linearGradient id="SVGID_1_" gradientUnits="userSpaceOnUse" x1="309.5176" y1="428.9371" x2="309.5176" y2="329.6893">
			<stop offset="0" style="stop-color:#A2782E"/>
			<stop offset="0.1841" style="stop-color:#B18539"/>
			<stop offset="0.4615" style="stop-color:#C39449"/>
			<stop offset="0.7355" style="stop-color:#CF9F54"/>
			<stop offset="1" style="stop-color:#D4A359"/>
		</linearGradient>
		<path class="st0" d="M320.6,414.2c2.4,1.6,5,2.8,8,3.7c3,0.9,5.9,1.3,8.9,1.3c2.5,0,4.9-0.3,7.2-0.9c2.3-0.6,4.1-1.4,5.5-2.4
			c1.2-0.9,2.2-2,2.9-3.2c0.7-1.2,1.3-2.9,1.9-5l1,0.1c-0.2,3-0.7,5.5-1.5,7.5c-0.8,2-2.1,4-3.9,5.9c-4.8,5-11.7,7.5-20.7,7.5
			c-5.3,0-9.7-1-13.3-2.9c-3.2-1.8-6.7-4.9-10.3-9.5l-0.4-0.4c-3.5,0-7.2-0.6-11-1.7c-3.8-1.1-7.4-2.7-10.7-4.7
			c-6.6-3.9-11.7-9.1-15.3-15.5c-3.6-6.4-5.5-13.4-5.5-20.9c0-6.7,1.4-13,4.3-18.7c2.9-5.8,7.1-10.8,12.7-15.1
			c4.1-3.2,8.5-5.6,13.3-7.3c4.8-1.7,9.7-2.6,14.5-2.6c5.7,0,11.3,1.1,16.6,3.4c4.1,1.8,7.9,4.2,11.5,7.3c3.6,3,6.6,6.5,9,10.3
			c4.3,6.8,6.5,14.1,6.5,22.1c0,5.1-0.9,10-2.7,14.8c-1.8,4.8-4.5,9.1-7.9,13.1c-2.9,3.3-5.9,6-9,8.1
			C328.8,410.9,325,412.7,320.6,414.2z M286.9,403.7c2.9-0.8,5.8-1.3,8.7-1.3c3.6,0,7,0.7,10.3,2.1c1.4,0.6,2.9,1.4,4.3,2.4
			c1.5,1,3.9,2.7,7.2,5.1l0.5,0.4c2.6-1.4,4.9-3.1,6.8-5c1.9-1.9,3.8-4.4,5.6-7.4c4.5-7.4,6.7-16,6.7-25.8c0-6.4-0.9-12.6-2.6-18.4
			c-1.7-5.8-4.2-10.7-7.4-14.7c-2.6-3.3-5.4-5.7-8.6-7.2c-3.2-1.5-6.8-2.3-11.1-2.3c-4.3,0-8,0.8-11.1,2.3c-3.2,1.5-6,3.9-8.6,7.2
			c-3.1,4-5.6,8.9-7.3,14.7c-1.7,5.8-2.6,11.9-2.6,18.4c0,6,0.7,11.3,2.2,16C281.4,394.8,283.7,399.3,286.9,403.7z M304.3,414.5
			l-0.4-0.5c-2.8-3.4-5.2-5.7-7.2-7.1c-2-1.4-4-2.1-6-2.1c-0.8,0-1.6,0.2-2.5,0.5c2.5,2.9,5,5.1,7.4,6.5
			C298.1,413.1,301,414,304.3,414.5z"/>
	</g>
	<g>
		<path class="st1" d="M201.4,452.5h-3.3v-1h7.7v1h-3.3v8.8h-1.1V452.5z"/>
		<path class="st1" d="M221.6,451.5h1.1v4.4h5.7v-4.4h1.1v9.8h-1.1v-4.4h-5.7v4.4h-1.1V451.5z"/>
		<path class="st1" d="M246.5,451.5h7.1v1h-6v3.4h5.4v1h-5.4v3.4h6.1v1h-7.2V451.5z"/>
		<path class="st1" d="M288.2,460.5c-0.8,0.7-1.9,1.1-3.1,1.1c-3,0-5-2.3-5-5.1v0c0-2.7,2-5.1,5-5.1c3,0,5,2.3,5,5.1c0,0,0,0,0,0
			c0,1.2-0.4,2.4-1.2,3.3l1.3,1.1l-0.8,0.8L288.2,460.5z M287.4,459.8l-1.8-1.6l0.7-0.8l1.8,1.6c0.5-0.7,0.9-1.6,0.9-2.5v0
			c0-2.2-1.6-4.1-3.9-4.1c-2.2,0-3.9,1.8-3.9,4v0c0,2.2,1.6,4.1,3.9,4.1C286,460.5,286.8,460.2,287.4,459.8z"/>
		<path class="st1" d="M307.3,457.2v-5.7h1.1v5.7c0,2.1,1.1,3.3,3,3.3c1.8,0,3-1.1,3-3.2v-5.7h1.1v5.6c0,2.9-1.6,4.4-4.1,4.4
			C309,461.5,307.3,460,307.3,457.2z"/>
		<path class="st1" d="M334.3,451.5h1.1v9.8h-1.1V451.5z"/>
		<path class="st1" d="M355.3,451.5h1l6.2,7.9v-7.9h1.1v9.8h-0.9l-6.4-8.1v8.1h-1.1V451.5z"/>
		<path class="st1" d="M380.6,456.5L380.6,456.5c0-2.8,2.1-5.1,5-5.1c1.8,0,2.9,0.6,3.8,1.6l-0.8,0.8c-0.8-0.8-1.8-1.4-3.1-1.4
			c-2.2,0-3.8,1.8-3.8,4v0c0,2.3,1.6,4.1,3.8,4.1c1.3,0,2.2-0.5,3.2-1.4l0.7,0.7c-1,1-2.2,1.7-3.9,1.7
			C382.6,461.5,380.6,459.3,380.6,456.5z"/>
		<path class="st1" d="M409.2,457.5l-4.1-5.9h1.3l3.3,4.9l3.3-4.9h1.3l-4.1,5.9v3.9h-1.1V457.5z"/>
	</g>
</g>
</symbol><symbol id="svg-logo" viewBox="0 0 400 244.01"><title>logo</title><path d="M306.5,178.3a55.22,55.22,0,0,0,14.77,6.88,56.5,56.5,0,0,0,16.45,2.49A52.43,52.43,0,0,0,351,186a29,29,0,0,0,10.09-4.47,19.61,19.61,0,0,0,5.3-5.83,38.25,38.25,0,0,0,3.51-9.24l1.78.22A43.62,43.62,0,0,1,369,180.6a34.93,34.93,0,0,1-7.3,11q-13.27,13.95-38.36,13.94-14.6,0-24.53-5.31-8.93-4.86-19.07-17.53l-.67-.79a72.6,72.6,0,0,1-20.34-3.07,83,83,0,0,1-19.79-8.65,78,78,0,0,1-28.38-28.67,76.72,76.72,0,0,1-10.09-38.6,76.15,76.15,0,0,1,8-34.64,81.36,81.36,0,0,1,23.41-28,86.86,86.86,0,0,1,24.64-13.56A80,80,0,0,1,283.41,22a77.86,77.86,0,0,1,30.78,6.36A88.15,88.15,0,0,1,352.1,60.82a74.08,74.08,0,0,1,12,40.84A75.81,75.81,0,0,1,359.06,129a81.13,81.13,0,0,1-14.66,24.27,82,82,0,0,1-16.72,15A93.55,93.55,0,0,1,306.5,178.3Zm-62.22-19.4a58.25,58.25,0,0,1,16.17-2.34,48,48,0,0,1,19.06,3.9,54.11,54.11,0,0,1,8,4.35q4.12,2.67,13.38,9.36l1,.78a54.34,54.34,0,0,0,12.54-9.15,67.86,67.86,0,0,0,10.31-13.72q12.38-20.42,12.38-47.76a117.79,117.79,0,0,0-4.85-34q-4.85-16.18-13.66-27.22A45.91,45.91,0,0,0,302.76,29.8a46.38,46.38,0,0,0-20.46-4.24q-11.82,0-20.57,4.19a44.9,44.9,0,0,0-15.89,13.33q-8.7,11.05-13.55,27.17a117.34,117.34,0,0,0-4.85,34,99.91,99.91,0,0,0,4,29.51A86.3,86.3,0,0,0,244.28,158.91Zm32.22,19.84-.78-.89q-7.81-9.36-13.27-13.15a19.38,19.38,0,0,0-11.15-3.79,14.43,14.43,0,0,0-4.68.89q7,8.14,13.77,11.93A44.28,44.28,0,0,0,276.5,178.75Z" transform="translate(-80 -21.99)" fill="url(#linear-gradient)"/><path d="M86.11,249.16H80v-1.9H94.3v1.9H88.19v16.3H86.11Z" transform="translate(-80 -21.99)" fill="#fff"/><path d="M123.44,247.26h2.05v8.09H136v-8.09H138v18.2H136v-8.19h-10.5v8.19h-2.05Z" transform="translate(-80 -21.99)" fill="#fff"/><path d="M169.53,247.26h13.16v1.87h-11.1v6.21h9.93v1.87h-9.93v6.37h11.23v1.87H169.53Z" transform="translate(-80 -21.99)" fill="#fff"/><path d="M246.7,263.82a9.31,9.31,0,0,1-15-7.41v-.05a9.28,9.28,0,1,1,18.56-.05s0,0,0,.05a9.43,9.43,0,0,1-2.19,6.11l2.42,2L249.1,266Zm-1.51-1.33-3.38-2.88,1.38-1.54,3.35,3a7.67,7.67,0,0,0,1.59-4.71v-.05a7.24,7.24,0,0,0-7.18-7.52,7.15,7.15,0,0,0-7.12,7.46v.05a7.24,7.24,0,0,0,7.18,7.52A6.85,6.85,0,0,0,245.2,262.5Z" transform="translate(-80 -21.99)" fill="#fff"/><path d="M282.07,257.84V247.26h2.05v10.45c0,3.93,2.08,6.14,5.56,6.14s5.49-2,5.49-6V247.26h2.05v10.43c0,5.3-3,8.06-7.6,8.06S282.07,263,282.07,257.84Z" transform="translate(-80 -21.99)" fill="#fff"/><path d="M331.92,247.26H334v18.2h-2.06Z" transform="translate(-80 -21.99)" fill="#fff"/><path d="M370.77,247.26h1.92l11.47,14.59V247.26h2v18.2h-1.64l-11.75-14.92v14.92h-2Z" transform="translate(-80 -21.99)" fill="#fff"/><path d="M417.43,256.41v-.05a9.17,9.17,0,0,1,9.2-9.41,9.46,9.46,0,0,1,7.1,2.89l-1.4,1.51a7.91,7.91,0,0,0-5.72-2.5,7.14,7.14,0,0,0-7,7.46v.05c0,4.21,3,7.52,7,7.52a7.91,7.91,0,0,0,5.88-2.63l1.35,1.33a9.47,9.47,0,0,1-7.28,3.2A9.08,9.08,0,0,1,417.43,256.41Z" transform="translate(-80 -21.99)" fill="#fff"/><path d="M470.35,258.26l-7.57-11h2.5l6.14,9.1,6.19-9.1H480l-7.57,11v7.23h-2.08Z" transform="translate(-80 -21.99)" fill="#fff"/></symbol><symbol id="svg-menu-icon-close" viewBox="0 0 17.68 17.68"><title>menu-icon-close</title><line x1="0.35" y1="0.35" x2="17.32" y2="17.32" fill="none" stroke="#fff" stroke-miterlimit="10"/><line x1="0.35" y1="17.32" x2="17.32" y2="0.35" fill="none" stroke="#fff" stroke-miterlimit="10"/></symbol><symbol id="svg-menu-icon" viewBox="0 0 13 24"><title>menu-icon</title><line x1="0.5" x2="0.5" y2="24" fill="none" stroke="#fff" stroke-miterlimit="10"/><line x1="6.5" x2="6.5" y2="24" fill="none" stroke="#fff" stroke-miterlimit="10"/><line x1="12.5" x2="12.5" y2="24" fill="none" stroke="#fff" stroke-miterlimit="10"/></symbol><symbol id="svg-phone" viewBox="0 0 21.12 21.06"><title>phone</title><path d="M493.5,989.49a.73.73,0,0,0-.44,0c-1.58.61-2.57,2.86-2.8,4.41-.73,5,3.24,9.38,6.89,12.24,3.24,2.54,9.46,6.72,13.14,2.69a3,3,0,0,0,1-2c-.09-1.23-1.23-2.1-2.1-2.77-.67-.5-2.07-1.87-2.95-1.84s-1.29.85-1.78,1.34l-.88.88c-.15.15-2-1.08-2.22-1.23a14.9,14.9,0,0,1-2.13-1.66,13.77,13.77,0,0,1-1.72-2,10.16,10.16,0,0,1-1.23-2.13s1-1.11,1.31-1.55c.61-.93,1.08-1.66.38-2.77a6.53,6.53,0,0,0-.93-1.08,17.77,17.77,0,0,0-1.93-1.69A4.12,4.12,0,0,0,493.5,989.49Z" transform="translate(-490.17 -989.47)" fill="#fff"/></symbol><symbol id="svg-scrollbar" viewBox="0 0 15.48 9.03"><title>scrollbar</title><path d="M510.88,1002.56c-.12-.16-3.31-4.07-7.38-4.07s-7.26,3.91-7.38,4.07l-.35.44.35.44c.12.16,3.31,4.07,7.38,4.07s7.26-3.91,7.38-4.07l.35-.44Zm-7.38,3.1a2.66,2.66,0,1,1,2.57-2.66A2.61,2.61,0,0,1,503.5,1005.66Z" transform="translate(-495.76 -998.48)" fill="#35383a"/></symbol></svg>