<svg xmlns="http://www.w3.org/2000/svg" viewBox="0 0 55.04 51.55"><defs><style>.cls-1{fill:#a17830;}</style></defs><title>Asset 1</title><g id="Layer_2" data-name="Layer 2"><g id="Content"><path class="cls-1" d="M37.72,23.68a4.23,4.23,0,0,0,4.37-1.45l1.53-1.6L54.85,8.85a.59.59,0,0,0,0-.88A.57.57,0,0,0,54,8L42.9,18.37l0,0c-.18.18-.59.08-.9-.24s-.42-.72-.24-.9h0L52.34,6.34a.61.61,0,0,0,0-.92.6.6,0,0,0-.91,0L40.31,15.79h0v0c-.18.18-.56.08-.87-.21s-.39-.69-.21-.87h0l10.43-11a.6.6,0,0,0,0-.91.61.61,0,0,0-.92,0L37.77,13.26h0v0c-.18.18-.59.08-.9-.24s-.42-.72-.24-.9l0,0,10.43-11a.57.57,0,0,0,0-.87.58.58,0,0,0-.88,0L32.79,12.93a4.23,4.23,0,0,0-1.45,4.37,18.67,18.67,0,0,0,1.11,2.19L27,24.75,22.18,19.9,4.65,2.37a2.66,2.66,0,0,0-3.76,0l-.21.21c-2.95,2.95,4.23,12.16,9.8,17.73s8.27,3.16,8.27,3.16l1,1,2.74,2.85.92,1L4.25,46.85a2.66,2.66,0,0,0,0,3.76l.08.08h0l.08.08a2.66,2.66,0,0,0,3.76,0L26.68,31.69,43.52,49.17a2.66,2.66,0,0,0,3.76,0l.21-.21a2.66,2.66,0,0,0,0-3.76L30.27,28l5.26-5.42A18.8,18.8,0,0,0,37.72,23.68Z"/></g></g></svg>