<svg xmlns="http://www.w3.org/2000/svg" viewBox="0 0 45.9 44.59"><defs><style>.cls-1{fill:#d4a358;}</style></defs><title>Asset 3</title><g id="Layer_2" data-name="Layer 2"><g id="Content"><path class="cls-1" d="M45.9,34.34c0-1.22-2.65-1.84-2.65-1.84V32a1.38,1.38,0,0,0-.07-.44c0,.46,0,1.92,0,1.92,0,1.87-9.06,3.38-20.23,3.38S2.72,35.35,2.72,33.48c0,0,0-1.46,0-1.92a1.37,1.37,0,0,0-.07.44v.51S0,33.12,0,34.34v1.18l.71,1.33a1,1,0,0,0-.71.92v2s1.84,4.79,21.72,4.79h2.45c19.89,0,21.73-4.79,21.73-4.79v-2a1,1,0,0,0-.71-.92l.71-1.33Z"/><path class="cls-1" d="M22.95,34.75c10.92,0,19.8-1.45,20.19-3.25a2.5,2.5,0,0,0-.91-1A6,6,0,0,1,40.29,26c0-1.66-10.31-1.73-15-1.67v-1c3.76-.06,10.82-.3,15.08-1.31a19.76,19.76,0,0,0-.92-5.81c-.92-2.45-6.24-4.6-10.81-5.41C25.19,10.2,26,9.49,26,8.57V7.65A2.6,2.6,0,0,1,24.89,5.3V1.73h1.94v-1L26.52.21,23.25,0V0h-.51V0L19.38.21l-.31.51v1H21V5.3a2.6,2.6,0,0,1-1.12,2.35v.92c0,.92.81,1.63-2.65,2.24-4.58.81-9.89,3-10.81,5.41A19.8,19.8,0,0,0,5.51,22c4.23,1,11.27,1.25,15.08,1.31v1c-4.8,0-15,0-15,1.67a6,6,0,0,1-1.94,4.49,2.5,2.5,0,0,0-.92,1C3.15,33.3,12,34.75,22.95,34.75ZM20.6,24.37A1.41,1.41,0,0,0,22,25.73h1.89a1.41,1.41,0,0,0,1.4-1.36c7.78.11,13.77.74,13.77,1.51s-7.22,1.53-16.12,1.53S6.83,26.72,6.83,25.88,12.82,24.48,20.6,24.37Z"/></g></g></svg>