<svg id="Layer_1" data-name="Layer 1" xmlns="http://www.w3.org/2000/svg" viewBox="0 0 16.4 16.17"><title>icon-1</title><path d="M400,122.58l-8.11,4.52,0,1.81h1v6h14.32v-6h1v-1.78Zm-5.58,10.64v-5.79l5.58-3.11,5.61,3.18,0,5.7Z" transform="translate(-391.9 -122.58)" fill="#35383a"/><path d="M393.53,137.52a.62.62,0,1,1-.57.62.55.55,0,0,1,.57-.62m0,1c.13,0,.32-.08.32-.41s-.19-.41-.32-.41-.32.08-.32.41.19.41.32.41" transform="translate(-391.9 -122.58)" fill="#35383a"/><path d="M394.79,138.72h-.25v-1.17h.54a.34.34,0,0,1,.37.37.36.36,0,0,1-.38.37h-.28Zm.23-.63c.18,0,.18-.13.18-.18s-.06-.16-.22-.16h-.19v.34Z" transform="translate(-391.9 -122.58)" fill="#35383a"/><path d="M396.13,138.72h-.25v-1.17h.54a.34.34,0,0,1,.37.37.36.36,0,0,1-.38.37h-.28Zm.23-.63c.18,0,.18-.13.18-.18s-.06-.16-.22-.16h-.19v.34Z" transform="translate(-391.9 -122.58)" fill="#35383a"/><path d="M397.74,137.52a.62.62,0,1,1-.57.62.55.55,0,0,1,.57-.62m0,1c.13,0,.32-.08.32-.41s-.19-.41-.32-.41-.32.08-.32.41.19.41.32.41" transform="translate(-391.9 -122.58)" fill="#35383a"/><path d="M398.75,137.55h.59a.33.33,0,0,1,.37.33.28.28,0,0,1-.18.28c.1,0,.15.08.15.3s0,.21.05.23v0h-.27a.76.76,0,0,1,0-.24c0-.16,0-.22-.19-.22H399v.46h-.24Zm.53.51c.13,0,.19,0,.19-.16s0-.15-.17-.15H399v.31Z" transform="translate(-391.9 -122.58)" fill="#35383a"/><polygon points="8.75 16.14 8.5 16.14 8.5 15.18 8.15 15.18 8.15 14.97 9.11 14.97 9.11 15.18 8.75 15.18 8.75 16.14" fill="#35383a"/><path d="M402.34,138.31c0,.31-.19.44-.48.44a.51.51,0,0,1-.37-.14.42.42,0,0,1-.09-.28v-.77h.25v.76a.21.21,0,0,0,.21.23c.17,0,.24-.08.24-.22v-.77h.25Z" transform="translate(-391.9 -122.58)" fill="#35383a"/><polygon points="11.65 14.97 11.88 14.97 11.88 16.14 11.64 16.14 11.16 15.3 11.15 15.3 11.15 16.14 10.92 16.14 10.92 14.97 11.18 14.97 11.65 15.78 11.65 15.78 11.65 14.97" fill="#35383a"/><rect x="12.35" y="14.97" width="0.25" height="1.17" fill="#35383a"/><polygon points="13.57 16.14 13.32 16.14 13.32 15.18 12.97 15.18 12.97 14.97 13.93 14.97 13.93 15.18 13.57 15.18 13.57 16.14" fill="#35383a"/><polygon points="14.87 16.14 14.63 16.14 14.63 15.7 14.22 14.97 14.51 14.97 14.75 15.48 14.99 14.97 15.27 14.97 14.87 15.7 14.87 16.14" fill="#35383a"/><polygon points="1.97 13.47 1.35 13.47 1.35 13.72 1.93 13.72 1.93 13.92 1.35 13.92 1.35 14.23 2 14.23 2 14.44 1.11 14.44 1.11 13.27 1.97 13.27 1.97 13.47" fill="#35383a"/><path d="M395.09,137.1,395,137a.63.63,0,0,1-.3.08.62.62,0,1,1,.56-.62.65.65,0,0,1-.12.42l.13.12Zm-.3-.54.12.12a.52.52,0,0,0,.05-.25c0-.32-.19-.41-.32-.41s-.32.08-.32.41.19.41.32.41a.31.31,0,0,0,.13,0l-.12-.11Z" transform="translate(-391.9 -122.58)" fill="#35383a"/><path d="M396.38,136.61c0,.31-.19.44-.48.44a.5.5,0,0,1-.37-.15.42.42,0,0,1-.09-.28v-.77h.25v.76c0,.16.09.24.21.24s.24-.08.24-.22v-.77h.25Z" transform="translate(-391.9 -122.58)" fill="#35383a"/><path d="M396.75,137h-.26l.42-1.17h.28l.41,1.17h-.26l-.07-.24h-.43Zm.14-.44h.3l-.15-.46h0Z" transform="translate(-391.9 -122.58)" fill="#35383a"/><polygon points="6.15 14.22 6.73 14.22 6.73 14.43 5.91 14.43 5.91 13.27 6.15 13.27 6.15 14.22" fill="#35383a"/><polygon points="8.12 13.91 8.12 14.43 7.88 14.43 7.88 13.27 8.12 13.27 8.12 13.71 8.58 13.71 8.58 13.27 8.82 13.27 8.82 14.43 8.58 14.43 8.58 13.91 8.12 13.91" fill="#35383a"/><path d="M401.47,135.81a.62.62,0,1,1-.56.62.55.55,0,0,1,.56-.62m0,1c.13,0,.32-.08.32-.41s-.18-.41-.32-.41-.32.08-.32.41.19.41.32.41" transform="translate(-391.9 -122.58)" fill="#35383a"/><path d="M403.16,136.61c0,.31-.18.44-.48.44a.49.49,0,0,1-.37-.15.4.4,0,0,1-.09-.28v-.77h.25v.76c0,.16.09.24.2.24s.24-.08.24-.22v-.77h.25Z" transform="translate(-391.9 -122.58)" fill="#35383a"/><path d="M403.57,136.65c0,.07,0,.19.25.19s.24,0,.24-.15-.09-.11-.21-.14l-.13,0c-.19,0-.37-.09-.37-.34s.07-.36.45-.36a.39.39,0,0,1,.45.38H404c0-.05,0-.18-.24-.18s-.2,0-.2.14.08.11.12.12l.28.07c.16,0,.31.11.31.32s-.36.38-.46.38c-.43,0-.5-.25-.5-.39Z" transform="translate(-391.9 -122.58)" fill="#35383a"/><rect x="12.56" y="13.26" width="0.24" height="1.17" fill="#35383a"/><polygon points="13.75 13.27 13.97 13.27 13.97 14.43 13.73 14.43 13.25 13.6 13.25 13.6 13.25 14.43 13.03 14.43 13.03 13.27 13.28 13.27 13.74 14.08 13.75 14.08 13.75 13.27" fill="#35383a"/><path d="M406.65,136.39h.49V137H407l0-.14a.43.43,0,0,1-.36.18.54.54,0,0,1-.53-.61.56.56,0,0,1,.57-.62.46.46,0,0,1,.51.4h-.24a.26.26,0,0,0-.26-.19c-.17,0-.33.12-.33.42s.17.4.34.4a.29.29,0,0,0,.28-.26h-.27Z" transform="translate(-391.9 -122.58)" fill="#35383a"/><rect x="5.34" y="5.17" width="5.48" height="1.8" fill="#35383a"/><rect x="5.34" y="7.67" width="5.48" height="1.8" fill="#35383a"/></svg>