<svg id="Layer_1" data-name="Layer 1" xmlns="http://www.w3.org/2000/svg" viewBox="0 0 14.87 16.85"><title>icon-3</title><path d="M271.32,149a5.46,5.46,0,0,1-2,2.26,5.45,5.45,0,0,1-7.63-7.32,5.44,5.44,0,0,1,2-2l.15,1a4.51,4.51,0,0,0-.61,6.86,4.48,4.48,0,0,0,6,.36,4.46,4.46,0,0,0,1.59-2.45Zm4.54.24-3,1.22L270.67,145h-5.84l-.85-8.47a1.25,1.25,0,0,1,.38-.93,1.29,1.29,0,0,1,1.83,0,1.26,1.26,0,0,1,.38.92,1.36,1.36,0,0,1-.31.93,1,1,0,0,1-.83.36l.31,3.49h3.95v1.28h-3.82L266,144h5.36l2.16,5,1.85-.73Z" transform="translate(-260.98 -135.24)" fill="#35383a"/></svg>