<?xml version="1.0" encoding="utf-8"?>
<!-- Generator: Adobe Illustrator 19.0.0, SVG Export Plug-In . SVG Version: 6.00 Build 0)  -->
<svg version="1.0" id="Layer_1" xmlns="http://www.w3.org/2000/svg" xmlns:xlink="http://www.w3.org/1999/xlink" x="0px" y="0px"
	 viewBox="0 0 78 45" enable-background="new 0 0 78 45" xml:space="preserve">
<path id="XMLID_2_" fill="#A17830" d="M62.8,15.4c-2.7,0-5.5,0.6-7.8,2.1l-4.9-6.1l0.8-2.1c2.9-0.5,3.6-1.2,4.4-2
	c0.7-0.8,0.6-1.4-0.5-1.4c-1.2,0-7.2,0.3-11.3,0.5c-0.8,0-1.4,0.6-0.7,1.2c0.7,0.6,3.6,1.6,5.2,1.9l-0.3,0.9H27.1L28.5,5l-1.2-2.1
	l1-1.1h5.1l-0.1-1.7h-5.7l-2.7,3l1.3,2.2l-4.2,11.8c-2.1-1.1-4.5-1.7-6.9-1.7C7,15.4,0.4,22,0.4,30.1c0,8.2,6.7,14.7,14.8,14.7
	c8.2,0,14.7-6.6,14.7-14.7c0-4.5-2.1-8.8-5.7-11.7l0.6-1.8l14.6,16.6c-0.4,1.3,0.4,2.5,1.8,2.8l1,3.8h-0.8V41l3.2-0.2v-1h-1.1
	L42.9,36c0.6-0.4,0.9-0.7,1.2-1.3l4.4-0.7c1.8,6.3,7.6,10.9,14.3,10.9c8.2,0,14.8-6.6,14.8-14.7C77.6,22,71,15.4,62.8,15.4z
	 M27.1,30.1c0,6.6-5.4,11.9-11.9,11.9c-6.6,0-11.9-5.4-11.9-11.9c0-6.6,5.4-11.9,11.9-11.9c2,0,4.3,0.6,5.9,1.6
	c-1.1,3.7-2.3,5.7-5.9,8.5c-0.8,0.1-1.5,0.7-1.5,1.6c0,0.9,0.6,1.6,1.6,1.6c0.8,0,1.5-0.6,1.5-1.6c2.8-2.2,4.9-4.3,6.5-8.5
	C25.8,23.6,27.1,26.8,27.1,30.1z M41.4,29.5l-0.3-1.8h0.6l-0.1-1.1h-2.8l0.1,1.1h0.7l0.2,1.9c0,0-13.9-15.7-14-15.7l0.3-0.9h20.7
	L41.4,29.5z M48.2,31.4l-4.7,0.5l5.8-17.6l3.7,4.4c-3.6,3.3-4.9,7.3-4.9,11.4C48.1,30.5,48.2,31.1,48.2,31.4z M54.7,21l6.4,8.2
	l-10.1,1.7C50.9,27.3,51.4,23.8,54.7,21z M62.8,42.1c-5.3,0-10.1-3.6-11.5-8.7l10.9-2c0.2,0.1,0.5,0.1,0.6,0.1
	c0.9,0,1.6-0.6,1.6-1.6c0-0.8-0.6-1.5-1.5-1.6l-6.5-8.6c1.8-1,4.3-1.5,6.3-1.5c6.6,0,11.9,5.4,11.9,11.9
	C74.8,36.7,69.4,42.1,62.8,42.1z"/>
</svg>
