<?xml version="1.0" encoding="utf-8"?>
<!-- Generator: Adobe Illustrator 19.0.0, SVG Export Plug-In . SVG Version: 6.00 Build 0)  -->
<svg version="1.0" id="Layer_1" xmlns="http://www.w3.org/2000/svg" xmlns:xlink="http://www.w3.org/1999/xlink" x="0px" y="0px"
	 viewBox="0 0 61 35" enable-background="new 0 0 61 35" xml:space="preserve">
<path id="XMLID_2_" fill="#A17830" d="M55.3,17.4c0-2.8,2.1-5,4.7-5.4c0.4,0,0.7-0.4,0.7-0.8V2.5c0-1.3-1-2.3-2.3-2.3H2.6
	c-1.3,0-2.3,1-2.3,2.3V11c0,0.4,0.3,0.7,0.7,0.8c2.7,0.3,4.7,2.6,4.7,5.4c0,2.8-2.1,5-4.7,5.4c-0.4,0-0.7,0.4-0.7,0.8V32
	c0,1.3,1,2.3,2.3,2.3h55.7c1.3,0,2.3-1,2.3-2.3v-8.4c0-0.4-0.3-0.7-0.7-0.8C57.3,22.4,55.3,20.2,55.3,17.4 M50.6,25.8
	c0,1.7-1.4,3.1-3.1,3.1H13.5c-1.7,0-3.1-1.4-3.1-3.1V8.7c0-1.7,1.4-3.1,3.1-3.1h34.1c1.7,0,3.1,1.4,3.1,3.1V25.8z M47.5,8H13.5
	c-0.4,0-0.8,0.3-0.8,0.8v17.1c0,0.4,0.3,0.8,0.8,0.8h34.1c0.4,0,0.8-0.3,0.8-0.8V8.7C48.3,8.3,48,8,47.5,8 M37.7,16.2l-3.5,2.8
	c-0.1,0.1-0.2,0.3-0.2,0.5l1.2,4.2c0.1,0.4-0.2,0.7-0.6,0.7c-0.1,0-0.2,0-0.3-0.1l-3.7-2.4c-0.1,0-0.2-0.1-0.2-0.1s-0.2,0-0.2,0.1
	l-3.7,2.4c-0.1,0-0.2,0.1-0.3,0.1c-0.3,0-0.7-0.3-0.6-0.7l1.2-4.2c0-0.2,0-0.3-0.2-0.5l-3.5-2.8c-0.4-0.3-0.2-0.9,0.3-1l4.4-0.1
	c0.2,0,0.3-0.1,0.4-0.3l1.5-4.2c0.1-0.2,0.3-0.3,0.5-0.3c0.2,0,0.4,0.1,0.5,0.3l1.5,4.2c0.1,0.2,0.2,0.3,0.4,0.3l4.4,0.1
	C37.8,15.2,38,15.8,37.7,16.2"/>
</svg>
