<svg id="Layer_1" data-name="Layer 1" xmlns="http://www.w3.org/2000/svg" viewBox="0 0 15.72 15.17"><title>icon-2</title><g id="layer1"><path id="path1575" d="M260.35,136.08h-.1a3.06,3.06,0,0,0-2.19,2.91c-.16,1.14.34,2.6,1.59,2.86a1.22,1.22,0,0,0,.55,0,3.41,3.41,0,0,0,2-3.77A2,2,0,0,0,260.35,136.08Zm-5.69.06a1.92,1.92,0,0,0-1.62,1.67c-.28,1.58.44,3.55,2.08,4a1.28,1.28,0,0,0,.47,0,2.22,2.22,0,0,0,1.53-2.44,3.33,3.33,0,0,0-2.1-3.24A1.3,1.3,0,0,0,254.65,136.14Zm9.33,4.49a3.09,3.09,0,0,0-2.58,2.88c-.19,1,.33,2.28,1.43,2.35,1.54,0,2.6-1.67,2.64-3.1A1.84,1.84,0,0,0,264,140.64Zm-12.65.32a1.46,1.46,0,0,0-1.42,1,3.33,3.33,0,0,0,2.31,4.15A1.45,1.45,0,0,0,253.8,145a3.45,3.45,0,0,0-1.76-3.83A1.46,1.46,0,0,0,251.34,141Zm6.48,3a4.38,4.38,0,0,0-3.21,1.53,8.77,8.77,0,0,0-1.8,3.64,1.6,1.6,0,0,0,1.45,2.08c1.24,0,2.3-.82,3.54-.88a5.85,5.85,0,0,1,2.92.74,1.76,1.76,0,0,0,2.32-.65,3.41,3.41,0,0,0-.54-2.6,9.83,9.83,0,0,0-3-3.39A3.17,3.17,0,0,0,257.82,144Z" transform="translate(-249.78 -136.08)" fill="#35383a"/></g></svg>