<svg id="Layer_1" data-name="Layer 1" xmlns="http://www.w3.org/2000/svg" viewBox="0 0 16.11 16.15"><title>icon-4</title><path d="M285,143.66h-.48V143c0-.58-.44-.7-.81-.7h-1.3a1.06,1.06,0,0,1-.95-.55,1.34,1.34,0,0,1-.14-.93,1.54,1.54,0,0,1-.9-.41,1.44,1.44,0,0,1-.45-1,1.41,1.41,0,0,1,1.45-1.47v.48a1,1,0,0,0-.66,1.67,1.17,1.17,0,0,0,.9.29.24.24,0,0,1,.22.36.83.83,0,0,0,0,.8.58.58,0,0,0,.53.3h1.3A1.15,1.15,0,0,1,285,143v.66Z" transform="translate(-272.45 -135.59)" fill="#35383a"/><path d="M285.72,143.66h-.48v-.89a1.55,1.55,0,0,0-1.54-1.62h-.77a.24.24,0,0,1-.2-.38A1.42,1.42,0,0,0,283,140a1.12,1.12,0,0,0-1.21-1.11v-.48A1.61,1.61,0,0,1,283.5,140a1.77,1.77,0,0,1-.15.69h.35a2,2,0,0,1,2,2.11v.89Z" transform="translate(-272.45 -135.59)" fill="#35383a"/><polygon points="12.53 9.77 12.04 9.77 12.04 8.3 12.53 8.3 12.53 9.77" fill="#35383a"/><polygon points="13.28 9.77 12.8 9.77 12.8 8.3 13.28 8.3 13.28 9.77" fill="#35383a"/><polygon points="11.77 9.77 11.77 8.33 8.58 8.33 10.02 9.77 11.77 9.77" fill="#35383a"/><polygon points="2.75 8.33 2.75 9.77 8.99 9.77 7.55 8.33 2.75 8.33" fill="#35383a"/><path d="M286.2,138a8.09,8.09,0,1,0,2.36,5.71A8,8,0,0,0,286.2,138Zm.56,5.71a6.25,6.25,0,0,1-1.2,3.69l-8.74-8.76a6.25,6.25,0,0,1,9.95,5.07Zm-12.52,0a6.25,6.25,0,0,1,1.24-3.75l8.76,8.78a6.25,6.25,0,0,1-10-5Z" transform="translate(-272.45 -135.59)" fill="#35383a"/></svg>