<?xml version="1.0" encoding="utf-8"?>
<!-- Generator: Adobe Illustrator 19.0.0, SVG Export Plug-In . SVG Version: 6.00 Build 0)  -->
<svg version="1.0" id="Layer_1" xmlns="http://www.w3.org/2000/svg" xmlns:xlink="http://www.w3.org/1999/xlink" x="0px" y="0px"
	 viewBox="0 0 45 57" enable-background="new 0 0 45 57" xml:space="preserve">
<path id="XMLID_2_" fill="#A17830" d="M35.1,16.2h-2.4c0-7.3-4.9-13.9-10.8-13.9c-6,0-10.8,6.6-10.8,13.9H8.8
	C8.8,7.7,14.7-0.1,22-0.1C29.2-0.1,35.1,7.7,35.1,16.2 M44.2,18.4c0-0.2-0.3-0.4-0.6-0.4h-43C0.3,18,0,18.2,0,18.4v37.7
	c0,0.2,0.3,0.4,0.6,0.4h43c0.3,0,0.6-0.2,0.6-0.4V18.4z"/>
</svg>
