<?xml version="1.0" encoding="utf-8"?>
<!-- Generator: Adobe Illustrator 19.0.0, SVG Export Plug-In . SVG Version: 6.00 Build 0)  -->
<svg version="1.0" id="Layer_1" xmlns="http://www.w3.org/2000/svg" xmlns:xlink="http://www.w3.org/1999/xlink" x="0px" y="0px"
	 viewBox="0 0 56 52" enable-background="new 0 0 56 52" xml:space="preserve">
<path id="XMLID_2_" fill="#A17830" d="M38.7,23.6c1.8,0.4,3.1-0.2,4.4-1.4l1.5-1.6L55.8,8.7c0.3-0.3,0.2-0.7,0-0.9
	c-0.2-0.2-0.5-0.3-0.9,0L43.9,18.3c0,0,0,0,0,0c-0.2,0.2-0.6,0.1-0.9-0.2c-0.3-0.3-0.4-0.7-0.2-0.9c0,0,0,0,0,0l0,0L53.3,6.2
	c0.3-0.3,0.2-0.7,0-0.9c-0.3-0.3-0.6-0.3-0.9,0L41.3,15.7l0,0c0,0,0,0,0,0c-0.2,0.2-0.6,0.1-0.9-0.2c-0.3-0.3-0.4-0.7-0.2-0.9
	c0,0,0,0,0,0l0,0l10.4-11c0.3-0.3,0.2-0.7,0-0.9c-0.3-0.3-0.6-0.3-0.9,0L38.7,13.1l0,0c0,0,0,0,0,0c-0.2,0.2-0.6,0.1-0.9-0.2
	c-0.3-0.3-0.4-0.7-0.2-0.9c0,0,0,0,0,0L48,1c0.3-0.3,0.2-0.6,0-0.9c-0.2-0.2-0.6-0.3-0.9,0L33.7,12.8c-1.3,1.2-1.9,2.6-1.4,4.4
	c0.1,0.6,0.9,1.7,1.1,2.2L28,24.6l-4.8-4.8L5.6,2.3c-1-1-2.7-1-3.8,0L1.6,2.5c-2.9,2.9,4.2,12.2,9.8,17.7c5.6,5.6,8.3,3.2,8.3,3.2
	l1,1l2.7,2.8l0.9,1L5.2,46.7c-1,1-1,2.7,0,3.8l0.1,0.1h0l0,0l0,0l0.1,0.1c1,1,2.7,1,3.8,0l18.5-19.1l16.8,17.5c1,1,2.7,1,3.8,0
	l0.2-0.2c1-1,1-2.7,0-3.8L31.2,27.9l5.3-5.4C37,22.7,38.1,23.4,38.7,23.6z"/>
</svg>
