<svg xmlns="http://www.w3.org/2000/svg" viewBox="0 0 60.38 34.06"><defs><style>.cls-1{fill:#d4a358;}</style></defs><title>Asset 4</title><g id="Layer_2" data-name="Layer 2"><g id="Content"><path class="cls-1" d="M55,17.18a5.42,5.42,0,0,1,4.75-5.38.77.77,0,0,0,.67-.76V2.32A2.32,2.32,0,0,0,58.06,0H2.32A2.32,2.32,0,0,0,0,2.32v8.42a.77.77,0,0,0,.67.76,5.42,5.42,0,0,1,4.75,5.38A5.42,5.42,0,0,1,.67,22.26.77.77,0,0,0,0,23v8.71a2.32,2.32,0,0,0,2.32,2.32H58.06a2.32,2.32,0,0,0,2.32-2.32V23.32a.77.77,0,0,0-.67-.76A5.42,5.42,0,0,1,55,17.18m-4.64,8.39a3.08,3.08,0,0,1-3.08,3.08H13.14a3.08,3.08,0,0,1-3.08-3.08V8.5a3.08,3.08,0,0,1,3.08-3.08H47.24A3.08,3.08,0,0,1,50.32,8.5ZM47.24,7.74H13.14a.76.76,0,0,0-.76.76V25.56a.76.76,0,0,0,.76.76H47.24a.76.76,0,0,0,.76-.76V8.5a.76.76,0,0,0-.76-.76m-9.87,8.2L33.9,18.7a.53.53,0,0,0-.15.46L35,23.35a.6.6,0,0,1-.87.63l-3.65-2.41a.52.52,0,0,0-.24-.06.52.52,0,0,0-.24.06L26.29,24a.6.6,0,0,1-.87-.63l1.21-4.19a.52.52,0,0,0-.15-.46L23,15.94a.6.6,0,0,1,.33-1l4.4-.12a.52.52,0,0,0,.39-.29l1.51-4.18a.6.6,0,0,1,1.07,0l1.51,4.18a.52.52,0,0,0,.39.29l4.4.12a.6.6,0,0,1,.33,1"/></g></g></svg>