<?xml version="1.0" encoding="utf-8"?>
<!-- Generator: Adobe Illustrator 19.0.0, SVG Export Plug-In . SVG Version: 6.00 Build 0)  -->
<svg version="1.0" id="Layer_1" xmlns="http://www.w3.org/2000/svg" xmlns:xlink="http://www.w3.org/1999/xlink" x="0px" y="0px"
	 viewBox="0 0 46 45" enable-background="new 0 0 46 45" xml:space="preserve">
<g id="XMLID_2_">
	<path id="XMLID_6_" fill="#A17830" d="M46,34.3c0-1.2-2.7-1.8-2.7-1.8s0,0,0-0.5c0-0.2,0-0.3-0.1-0.4c0,0.5,0,1.9,0,1.9
		c0,1.9-9.1,3.4-20.2,3.4c-11.2,0-20.2-1.5-20.2-3.4c0,0,0-1.5,0-1.9c0,0.1-0.1,0.3-0.1,0.4c0,0.5,0,0.5,0,0.5s-2.7,0.6-2.7,1.8
		c0,1.2,0,1.2,0,1.2l0.7,1.3c0,0-0.7,0.2-0.7,0.9c0,0.7,0,2,0,2s1.8,4.8,21.7,4.8c0.4,0,2,0,2.4,0c19.9,0,21.7-4.8,21.7-4.8
		s0-1.3,0-2c0-0.7-0.7-0.9-0.7-0.9l0.7-1.3C46,35.5,46,35.6,46,34.3z"/>
	<path id="XMLID_3_" fill="#A17830" d="M23.1,34.7c10.9,0,19.8-1.4,20.2-3.3c-0.1-0.3-0.4-0.6-0.9-1c-0.8-0.6-1.9-2.3-1.9-4.5
		c0-1.7-10.3-1.7-15-1.7v-1c3.8-0.1,10.8-0.3,15.1-1.3c0,0,0-3.4-0.9-5.8c-0.9-2.4-6.2-4.6-10.8-5.4c-3.5-0.6-2.7-1.3-2.7-2.2
		c0-0.9,0-0.9,0-0.9S25,7,25,5.3c0-1.7,0-3.6,0-3.6h1.9v-1l-0.3-0.5L23.4,0v0l-0.3,0l-0.3,0v0l-3.4,0.2l-0.3,0.5v1h1.9
		c0,0,0,1.8,0,3.6C21.1,7,20,7.6,20,7.6s0,0,0,0.9c0,0.9,0.8,1.6-2.7,2.2c-4.6,0.8-9.9,3-10.8,5.4C5.6,18.7,5.6,22,5.6,22
		c4.2,1,11.3,1.3,15.1,1.3v1c-4.8,0-15,0-15,1.7c0,2.1-1.1,3.9-1.9,4.5c-0.5,0.4-0.8,0.7-0.9,1C3.3,33.3,12.1,34.7,23.1,34.7z
		 M20.7,24.4c0,0.8,0.6,1.4,1.4,1.4H24c0.8,0,1.4-0.6,1.4-1.4c7.8,0.1,13.8,0.7,13.8,1.5c0,0.8-7.2,1.5-16.1,1.5
		c-8.9,0-16.1-0.7-16.1-1.5C6.9,25.1,12.9,24.5,20.7,24.4z"/>
</g>
</svg>
