<svg xmlns="http://www.w3.org/2000/svg" viewBox="0 0 77.25 44.74"><defs><style>.cls-1{fill:#d4a358;}</style></defs><title>Asset 5</title><g id="Layer_2" data-name="Layer 2"><g id="Content"><path class="cls-1" d="M62.43,15.28a14.49,14.49,0,0,0-7.78,2.13L49.74,11.3l.83-2.13c2.87-.46,3.61-1.2,4.35-2s.65-1.39-.46-1.39-7.22.28-11.3.46c-.83,0-1.39.56-.74,1.2a18.59,18.59,0,0,0,5.19,1.85l-.28.93H26.68l1.48-5.28L27,2.78l1-1.11h5.09L33,0H27.23L24.54,3l1.3,2.22L21.67,16.95a15,15,0,0,0-6.85-1.67A14.73,14.73,0,1,0,29.55,30,15.12,15.12,0,0,0,23.9,18.34l.65-1.76L39.18,33.16a2.16,2.16,0,0,0,1.76,2.78l1,3.8h-.83v1.11l3.24-.19v-1H43.25l-.74-3.8a3.23,3.23,0,0,0,1.2-1.3l4.45-.74A15,15,0,0,0,62.43,44.74a14.73,14.73,0,1,0,0-29.45ZM26.77,30A11.95,11.95,0,1,1,14.82,18.06a11.82,11.82,0,0,1,5.93,1.57c-1.11,3.71-2.32,5.65-5.93,8.52a1.61,1.61,0,0,0-1.48,1.57,1.51,1.51,0,0,0,1.57,1.57,1.49,1.49,0,0,0,1.48-1.57,17.78,17.78,0,0,0,6.48-8.52A11.79,11.79,0,0,1,26.77,30ZM41,29.36l-.28-1.76h.65l-.09-1.11H38.53l.09,1.11h.74l.19,1.85s-13.89-15.65-14-15.75l.28-.93H46.5Zm6.76,1.95-4.72.46,5.83-17.6,3.71,4.45A14.86,14.86,0,0,0,47.7,30C47.7,30.38,47.79,30.94,47.79,31.31Zm6.48-10.47,6.39,8.24-10.1,1.67C50.57,27.14,51,23.71,54.28,20.84ZM62.43,42a12,12,0,0,1-11.49-8.71l10.93-2a1.57,1.57,0,0,0,.65.09,1.51,1.51,0,0,0,1.57-1.57,1.61,1.61,0,0,0-1.48-1.57l-6.48-8.61a13.42,13.42,0,0,1,6.3-1.48,11.95,11.95,0,0,1,0,23.9Z"/></g></g></svg>