<svg id="Layer_1" data-name="Layer 1" xmlns="http://www.w3.org/2000/svg" xmlns:xlink="http://www.w3.org/1999/xlink" viewBox="0 0 66.5 83.64"><defs><linearGradient id="New_Gradient_Swatch_1" x1="503.07" y1="1014.85" x2="503.07" y2="976.87" gradientUnits="userSpaceOnUse"><stop offset="0" stop-color="#a17830"/><stop offset="0.15" stop-color="#af843b"/><stop offset="0.44" stop-color="#c3954b"/><stop offset="0.72" stop-color="#d09f55"/><stop offset="1" stop-color="#d4a358"/></linearGradient></defs><title>location</title><path d="M530.4,975.78a33.2,33.2,0,0,0-54.61,0,33,33,0,0,0-3.84,30.49,29.48,29.48,0,0,0,4.77,8l26.38,30.89,26.25-30.89a24.93,24.93,0,0,0,4.77-8A32.57,32.57,0,0,0,530.4,975.78Z" transform="translate(-469.82 -961.47)" fill="#fff"/><path d="M507.3,1009.22a11.43,11.43,0,0,0,3.06,1.42,11.69,11.69,0,0,0,3.4.51,10.85,10.85,0,0,0,2.76-.34,6,6,0,0,0,2.09-.93,4.06,4.06,0,0,0,1.1-1.21,7.92,7.92,0,0,0,.73-1.91l.37,0a9,9,0,0,1-.57,2.88,7.23,7.23,0,0,1-1.51,2.27q-2.75,2.89-7.94,2.89a10.64,10.64,0,0,1-5.08-1.1,14,14,0,0,1-3.95-3.63l-.14-.16a15,15,0,0,1-4.21-.64,17.18,17.18,0,0,1-4.1-1.79,16.14,16.14,0,0,1-5.87-5.93,16.31,16.31,0,0,1-.43-15.16,16.84,16.84,0,0,1,4.85-5.79,18,18,0,0,1,5.1-2.81,16.57,16.57,0,0,1,5.56-1,16.12,16.12,0,0,1,6.37,1.32,18.25,18.25,0,0,1,7.85,6.72,15.33,15.33,0,0,1,2.49,8.45,15.69,15.69,0,0,1-1.05,5.67,16.79,16.79,0,0,1-3,5,17,17,0,0,1-3.46,3.1A19.36,19.36,0,0,1,507.3,1009.22Zm-12.88-4a12.06,12.06,0,0,1,3.35-.48,10,10,0,0,1,3.95.81,11.2,11.2,0,0,1,1.66.9q.85.55,2.77,1.94l.21.16a11.25,11.25,0,0,0,2.6-1.89,14,14,0,0,0,2.13-2.84,18.69,18.69,0,0,0,2.56-9.89,24.38,24.38,0,0,0-1-7,16.56,16.56,0,0,0-2.83-5.63,9.5,9.5,0,0,0-3.29-2.75,9.6,9.6,0,0,0-4.24-.88,9.77,9.77,0,0,0-4.26.87,9.29,9.29,0,0,0-3.29,2.76,16.83,16.83,0,0,0-2.8,5.62,24.29,24.29,0,0,0-1,7,20.68,20.68,0,0,0,.83,6.11A17.86,17.86,0,0,0,494.42,1005.21Zm6.67,4.11-.16-.18a15.36,15.36,0,0,0-2.75-2.72,4,4,0,0,0-2.31-.78,3,3,0,0,0-1,.18,11,11,0,0,0,2.85,2.47A9.17,9.17,0,0,0,501.09,1009.31Z" transform="translate(-469.82 -961.47)" fill="url(#New_Gradient_Swatch_1)"/></svg>