<svg id="Layer_1" data-name="Layer 1" xmlns="http://www.w3.org/2000/svg" xmlns:xlink="http://www.w3.org/1999/xlink" viewBox="0 0 216.33 131.97"><defs><linearGradient id="New_Gradient_Swatch_1" x1="283.48" y1="176.96" x2="283.48" y2="77.71" gradientUnits="userSpaceOnUse"><stop offset="0" stop-color="#a17830"/><stop offset="0.15" stop-color="#af843b"/><stop offset="0.44" stop-color="#c3954b"/><stop offset="0.72" stop-color="#d09f55"/><stop offset="1" stop-color="#d4a358"/></linearGradient></defs><title>logo-white</title><path d="M294.51,162.25a29.86,29.86,0,0,0,8,3.72,30.56,30.56,0,0,0,8.89,1.35,28.36,28.36,0,0,0,7.21-.89,15.69,15.69,0,0,0,5.46-2.42,10.61,10.61,0,0,0,2.87-3.15,20.68,20.68,0,0,0,1.9-5l1,.12a23.59,23.59,0,0,1-1.48,7.51,18.89,18.89,0,0,1-3.95,5.93Q317.19,177,303.62,177a27.79,27.79,0,0,1-13.26-2.87q-4.83-2.63-10.31-9.48l-.36-.43a39.26,39.26,0,0,1-11-1.66,44.9,44.9,0,0,1-10.7-4.68,42.16,42.16,0,0,1-15.35-15.51,42.63,42.63,0,0,1-1.11-39.61,44,44,0,0,1,12.66-15.12,47,47,0,0,1,13.33-7.33A43.29,43.29,0,0,1,282,77.71a42.11,42.11,0,0,1,16.64,3.44,47.67,47.67,0,0,1,20.5,17.56,40.06,40.06,0,0,1,6.51,22.09,41,41,0,0,1-2.74,14.81A43.88,43.88,0,0,1,315,148.73a44.36,44.36,0,0,1-9,8.09A50.59,50.59,0,0,1,294.51,162.25Zm-33.65-10.49a31.5,31.5,0,0,1,8.75-1.27,26,26,0,0,1,10.31,2.11,29.26,29.26,0,0,1,4.34,2.35q2.23,1.44,7.23,5.06l.54.42a29.39,29.39,0,0,0,6.78-5,36.7,36.7,0,0,0,5.58-7.42q6.7-11,6.7-25.83a63.7,63.7,0,0,0-2.62-18.4,43.27,43.27,0,0,0-7.39-14.72,24.83,24.83,0,0,0-8.59-7.18,25.08,25.08,0,0,0-11.07-2.3A25.53,25.53,0,0,0,270.3,81.9a24.28,24.28,0,0,0-8.59,7.21,44,44,0,0,0-7.33,14.7,63.46,63.46,0,0,0-2.62,18.38,54,54,0,0,0,2.17,16A46.67,46.67,0,0,0,260.86,151.76Zm17.43,10.73-.42-.48a40.13,40.13,0,0,0-7.18-7.11,10.48,10.48,0,0,0-6-2.05,7.8,7.8,0,0,0-2.53.48,28.84,28.84,0,0,0,7.45,6.45A24,24,0,0,0,278.29,162.49Z" transform="translate(-172.02 -77.71)" fill="url(#New_Gradient_Swatch_1)"/><path d="M175.32,200.57H172v-1h7.73v1h-3.3v8.81h-1.13Z" transform="translate(-172.02 -77.71)" fill="#35383a"/><path d="M195.51,199.54h1.11v4.37h5.68v-4.37h1.11v9.84H202.3V205h-5.68v4.43h-1.11Z" transform="translate(-172.02 -77.71)" fill="#35383a"/><path d="M220.44,199.54h7.12v1h-6v3.36h5.37v1h-5.37v3.45h6.08v1h-7.19Z" transform="translate(-172.02 -77.71)" fill="#35383a"/><path d="M262.18,208.5a5,5,0,0,1-8.11-4v0a5,5,0,1,1,10,0s0,0,0,0a5.1,5.1,0,0,1-1.18,3.3l1.31,1.08-.76.83Zm-.81-.72-1.83-1.56.75-.83,1.81,1.65a4.15,4.15,0,0,0,.86-2.55v0a3.92,3.92,0,0,0-3.88-4.06,3.87,3.87,0,0,0-3.85,4v0a3.91,3.91,0,0,0,3.88,4.06A3.71,3.71,0,0,0,261.36,207.78Z" transform="translate(-172.02 -77.71)" fill="#35383a"/><path d="M281.3,205.26v-5.72h1.11v5.65c0,2.12,1.13,3.32,3,3.32s3-1.1,3-3.25v-5.72h1.11v5.64c0,2.87-1.65,4.36-4.11,4.36S281.3,208,281.3,205.26Z" transform="translate(-172.02 -77.71)" fill="#35383a"/><path d="M308.27,199.54h1.11v9.84h-1.11Z" transform="translate(-172.02 -77.71)" fill="#35383a"/><path d="M329.27,199.54h1l6.2,7.89v-7.89h1.08v9.84h-.89l-6.36-8.07v8.07h-1.08Z" transform="translate(-172.02 -77.71)" fill="#35383a"/><path d="M354.51,204.49v0a5,5,0,0,1,5-5.09,5.11,5.11,0,0,1,3.84,1.56l-.76.82a4.28,4.28,0,0,0-3.09-1.35,3.86,3.86,0,0,0-3.81,4v0a3.89,3.89,0,0,0,3.81,4.06,4.28,4.28,0,0,0,3.18-1.42l.73.72a5.12,5.12,0,0,1-3.94,1.73A4.91,4.91,0,0,1,354.51,204.49Z" transform="translate(-172.02 -77.71)" fill="#35383a"/><path d="M383.13,205.49,379,199.54h1.35l3.32,4.92,3.35-4.92h1.29l-4.09,5.93v3.91h-1.12Z" transform="translate(-172.02 -77.71)" fill="#35383a"/></svg>