<?xml version="1.0" encoding="utf-8"?>
<!-- Generator: Adobe Illustrator 19.0.0, SVG Export Plug-In . SVG Version: 6.00 Build 0)  -->
<svg version="1.1" id="Layer_1" xmlns="http://www.w3.org/2000/svg" xmlns:xlink="http://www.w3.org/1999/xlink" x="0px" y="0px"
	 viewBox="0 0 612 792" style="enable-background:new 0 0 612 792;" xml:space="preserve">
<style type="text/css">
	.st0{fill:url(#SVGID_1_);}
	.st1{fill:#36393B;}
</style>
<g>
	<g>
		<linearGradient id="SVGID_1_" gradientUnits="userSpaceOnUse" x1="309.5176" y1="428.9371" x2="309.5176" y2="329.6893">
			<stop  offset="0" style="stop-color:#A2782E"/>
			<stop  offset="0.1841" style="stop-color:#B18539"/>
			<stop  offset="0.4615" style="stop-color:#C39449"/>
			<stop  offset="0.7355" style="stop-color:#CF9F54"/>
			<stop  offset="1" style="stop-color:#D4A359"/>
		</linearGradient>
		<path class="st0" d="M320.6,414.2c2.4,1.6,5,2.8,8,3.7c3,0.9,5.9,1.3,8.9,1.3c2.5,0,4.9-0.3,7.2-0.9c2.3-0.6,4.1-1.4,5.5-2.4
			c1.2-0.9,2.2-2,2.9-3.2c0.7-1.2,1.3-2.9,1.9-5l1,0.1c-0.2,3-0.7,5.5-1.5,7.5c-0.8,2-2.1,4-3.9,5.9c-4.8,5-11.7,7.5-20.7,7.5
			c-5.3,0-9.7-1-13.3-2.9c-3.2-1.8-6.7-4.9-10.3-9.5l-0.4-0.4c-3.5,0-7.2-0.6-11-1.7c-3.8-1.1-7.4-2.7-10.7-4.7
			c-6.6-3.9-11.7-9.1-15.3-15.5c-3.6-6.4-5.5-13.4-5.5-20.9c0-6.7,1.4-13,4.3-18.7c2.9-5.8,7.1-10.8,12.7-15.1
			c4.1-3.2,8.5-5.6,13.3-7.3c4.8-1.7,9.7-2.6,14.5-2.6c5.7,0,11.3,1.1,16.6,3.4c4.1,1.8,7.9,4.2,11.5,7.3c3.6,3,6.6,6.5,9,10.3
			c4.3,6.8,6.5,14.1,6.5,22.1c0,5.1-0.9,10-2.7,14.8c-1.8,4.8-4.5,9.1-7.9,13.1c-2.9,3.3-5.9,6-9,8.1
			C328.8,410.9,325,412.7,320.6,414.2z M286.9,403.7c2.9-0.8,5.8-1.3,8.7-1.3c3.6,0,7,0.7,10.3,2.1c1.4,0.6,2.9,1.4,4.3,2.4
			c1.5,1,3.9,2.7,7.2,5.1l0.5,0.4c2.6-1.4,4.9-3.1,6.8-5c1.9-1.9,3.8-4.4,5.6-7.4c4.5-7.4,6.7-16,6.7-25.8c0-6.4-0.9-12.6-2.6-18.4
			c-1.7-5.8-4.2-10.7-7.4-14.7c-2.6-3.3-5.4-5.7-8.6-7.2c-3.2-1.5-6.8-2.3-11.1-2.3c-4.3,0-8,0.8-11.1,2.3c-3.2,1.5-6,3.9-8.6,7.2
			c-3.1,4-5.6,8.9-7.3,14.7c-1.7,5.8-2.6,11.9-2.6,18.4c0,6,0.7,11.3,2.2,16C281.4,394.8,283.7,399.3,286.9,403.7z M304.3,414.5
			l-0.4-0.5c-2.8-3.4-5.2-5.7-7.2-7.1c-2-1.4-4-2.1-6-2.1c-0.8,0-1.6,0.2-2.5,0.5c2.5,2.9,5,5.1,7.4,6.5
			C298.1,413.1,301,414,304.3,414.5z"/>
	</g>
	<g>
		<path class="st1" d="M201.4,452.5h-3.3v-1h7.7v1h-3.3v8.8h-1.1V452.5z"/>
		<path class="st1" d="M221.6,451.5h1.1v4.4h5.7v-4.4h1.1v9.8h-1.1v-4.4h-5.7v4.4h-1.1V451.5z"/>
		<path class="st1" d="M246.5,451.5h7.1v1h-6v3.4h5.4v1h-5.4v3.4h6.1v1h-7.2V451.5z"/>
		<path class="st1" d="M288.2,460.5c-0.8,0.7-1.9,1.1-3.1,1.1c-3,0-5-2.3-5-5.1v0c0-2.7,2-5.1,5-5.1c3,0,5,2.3,5,5.1c0,0,0,0,0,0
			c0,1.2-0.4,2.4-1.2,3.3l1.3,1.1l-0.8,0.8L288.2,460.5z M287.4,459.8l-1.8-1.6l0.7-0.8l1.8,1.6c0.5-0.7,0.9-1.6,0.9-2.5v0
			c0-2.2-1.6-4.1-3.9-4.1c-2.2,0-3.9,1.8-3.9,4v0c0,2.2,1.6,4.1,3.9,4.1C286,460.5,286.8,460.2,287.4,459.8z"/>
		<path class="st1" d="M307.3,457.2v-5.7h1.1v5.7c0,2.1,1.1,3.3,3,3.3c1.8,0,3-1.1,3-3.2v-5.7h1.1v5.6c0,2.9-1.6,4.4-4.1,4.4
			C309,461.5,307.3,460,307.3,457.2z"/>
		<path class="st1" d="M334.3,451.5h1.1v9.8h-1.1V451.5z"/>
		<path class="st1" d="M355.3,451.5h1l6.2,7.9v-7.9h1.1v9.8h-0.9l-6.4-8.1v8.1h-1.1V451.5z"/>
		<path class="st1" d="M380.6,456.5L380.6,456.5c0-2.8,2.1-5.1,5-5.1c1.8,0,2.9,0.6,3.8,1.6l-0.8,0.8c-0.8-0.8-1.8-1.4-3.1-1.4
			c-2.2,0-3.8,1.8-3.8,4v0c0,2.3,1.6,4.1,3.8,4.1c1.3,0,2.2-0.5,3.2-1.4l0.7,0.7c-1,1-2.2,1.7-3.9,1.7
			C382.6,461.5,380.6,459.3,380.6,456.5z"/>
		<path class="st1" d="M409.2,457.5l-4.1-5.9h1.3l3.3,4.9l3.3-4.9h1.3l-4.1,5.9v3.9h-1.1V457.5z"/>
	</g>
</g>
</svg>
