<svg id="Layer_1" data-name="Layer 1" xmlns="http://www.w3.org/2000/svg" viewBox="0 0 30 32.15"><title>logo-text</title><path d="M283.58,155.15a9.67,9.67,0,0,0,2.59,1.21,9.9,9.9,0,0,0,2.88.44,9.18,9.18,0,0,0,2.33-.29,5.08,5.08,0,0,0,1.77-.78,3.44,3.44,0,0,0,.93-1,6.7,6.7,0,0,0,.61-1.62l.31,0a7.64,7.64,0,0,1-.48,2.43,6.12,6.12,0,0,1-1.28,1.92q-2.32,2.44-6.72,2.44a9,9,0,0,1-4.3-.93,11.88,11.88,0,0,1-3.34-3.07l-.12-.14a12.72,12.72,0,0,1-3.56-.54,14.54,14.54,0,0,1-3.47-1.51,13.66,13.66,0,0,1-5-5,13.81,13.81,0,0,1-.36-12.83,14.25,14.25,0,0,1,4.1-4.9,15.22,15.22,0,0,1,4.32-2.37,14,14,0,0,1,4.71-.83,13.64,13.64,0,0,1,5.39,1.11,15.44,15.44,0,0,1,6.64,5.69,13,13,0,0,1,2.11,7.15,13.28,13.28,0,0,1-.89,4.8,14.21,14.21,0,0,1-2.57,4.25,14.37,14.37,0,0,1-2.93,2.62A16.39,16.39,0,0,1,283.58,155.15Zm-10.9-3.4a10.2,10.2,0,0,1,2.83-.41,8.42,8.42,0,0,1,3.34.68,9.48,9.48,0,0,1,1.41.76q.72.47,2.34,1.64l.18.14A9.52,9.52,0,0,0,285,153a11.89,11.89,0,0,0,1.81-2.4,15.81,15.81,0,0,0,2.17-8.37,20.63,20.63,0,0,0-.85-6,14,14,0,0,0-2.39-4.77,8,8,0,0,0-2.78-2.33,8.12,8.12,0,0,0-3.58-.74,8.27,8.27,0,0,0-3.6.73,7.87,7.87,0,0,0-2.78,2.34,14.24,14.24,0,0,0-2.37,4.76,20.56,20.56,0,0,0-.85,6,17.5,17.5,0,0,0,.7,5.17A15.12,15.12,0,0,0,272.68,151.75Zm5.64,3.48-.14-.16a13,13,0,0,0-2.32-2.3,3.39,3.39,0,0,0-2-.66,2.53,2.53,0,0,0-.82.16,9.34,9.34,0,0,0,2.41,2.09A7.76,7.76,0,0,0,278.32,155.23Z" transform="translate(-265 -127.77)" fill="#fff"/></svg>