<svg id="Layer_1" data-name="Layer 1" xmlns="http://www.w3.org/2000/svg" xmlns:xlink="http://www.w3.org/1999/xlink" viewBox="0 0 400 244.01"><defs><linearGradient id="linear-gradient" x1="286.09" y1="205.51" x2="286.09" y2="21.99" gradientUnits="userSpaceOnUse"><stop offset="0" stop-color="#a17830"/><stop offset="0.15" stop-color="#af843b"/><stop offset="0.44" stop-color="#c3954b"/><stop offset="0.72" stop-color="#d09f55"/><stop offset="1" stop-color="#d4a358"/></linearGradient></defs><title>logo</title><path d="M306.5,178.3a55.22,55.22,0,0,0,14.77,6.88,56.5,56.5,0,0,0,16.45,2.49A52.43,52.43,0,0,0,351,186a29,29,0,0,0,10.09-4.47,19.61,19.61,0,0,0,5.3-5.83,38.25,38.25,0,0,0,3.51-9.24l1.78.22A43.62,43.62,0,0,1,369,180.6a34.93,34.93,0,0,1-7.3,11q-13.27,13.95-38.36,13.94-14.6,0-24.53-5.31-8.93-4.86-19.07-17.53l-.67-.79a72.6,72.6,0,0,1-20.34-3.07,83,83,0,0,1-19.79-8.65,78,78,0,0,1-28.38-28.67,76.72,76.72,0,0,1-10.09-38.6,76.15,76.15,0,0,1,8-34.64,81.36,81.36,0,0,1,23.41-28,86.86,86.86,0,0,1,24.64-13.56A80,80,0,0,1,283.41,22a77.86,77.86,0,0,1,30.78,6.36A88.15,88.15,0,0,1,352.1,60.82a74.08,74.08,0,0,1,12,40.84A75.81,75.81,0,0,1,359.06,129a81.13,81.13,0,0,1-14.66,24.27,82,82,0,0,1-16.72,15A93.55,93.55,0,0,1,306.5,178.3Zm-62.22-19.4a58.25,58.25,0,0,1,16.17-2.34,48,48,0,0,1,19.06,3.9,54.11,54.11,0,0,1,8,4.35q4.12,2.67,13.38,9.36l1,.78a54.34,54.34,0,0,0,12.54-9.15,67.86,67.86,0,0,0,10.31-13.72q12.38-20.42,12.38-47.76a117.79,117.79,0,0,0-4.85-34q-4.85-16.18-13.66-27.22A45.91,45.91,0,0,0,302.76,29.8a46.38,46.38,0,0,0-20.46-4.24q-11.82,0-20.57,4.19a44.9,44.9,0,0,0-15.89,13.33q-8.7,11.05-13.55,27.17a117.34,117.34,0,0,0-4.85,34,99.91,99.91,0,0,0,4,29.51A86.3,86.3,0,0,0,244.28,158.91Zm32.22,19.84-.78-.89q-7.81-9.36-13.27-13.15a19.38,19.38,0,0,0-11.15-3.79,14.43,14.43,0,0,0-4.68.89q7,8.14,13.77,11.93A44.28,44.28,0,0,0,276.5,178.75Z" transform="translate(-80 -21.99)" fill="url(#linear-gradient)"/><path d="M86.11,249.16H80v-1.9H94.3v1.9H88.19v16.3H86.11Z" transform="translate(-80 -21.99)" fill="#fff"/><path d="M123.44,247.26h2.05v8.09H136v-8.09H138v18.2H136v-8.19h-10.5v8.19h-2.05Z" transform="translate(-80 -21.99)" fill="#fff"/><path d="M169.53,247.26h13.16v1.87h-11.1v6.21h9.93v1.87h-9.93v6.37h11.23v1.87H169.53Z" transform="translate(-80 -21.99)" fill="#fff"/><path d="M246.7,263.82a9.31,9.31,0,0,1-15-7.41v-.05a9.28,9.28,0,1,1,18.56-.05s0,0,0,.05a9.43,9.43,0,0,1-2.19,6.11l2.42,2L249.1,266Zm-1.51-1.33-3.38-2.88,1.38-1.54,3.35,3a7.67,7.67,0,0,0,1.59-4.71v-.05a7.24,7.24,0,0,0-7.18-7.52,7.15,7.15,0,0,0-7.12,7.46v.05a7.24,7.24,0,0,0,7.18,7.52A6.85,6.85,0,0,0,245.2,262.5Z" transform="translate(-80 -21.99)" fill="#fff"/><path d="M282.07,257.84V247.26h2.05v10.45c0,3.93,2.08,6.14,5.56,6.14s5.49-2,5.49-6V247.26h2.05v10.43c0,5.3-3,8.06-7.6,8.06S282.07,263,282.07,257.84Z" transform="translate(-80 -21.99)" fill="#fff"/><path d="M331.92,247.26H334v18.2h-2.06Z" transform="translate(-80 -21.99)" fill="#fff"/><path d="M370.77,247.26h1.92l11.47,14.59V247.26h2v18.2h-1.64l-11.75-14.92v14.92h-2Z" transform="translate(-80 -21.99)" fill="#fff"/><path d="M417.43,256.41v-.05a9.17,9.17,0,0,1,9.2-9.41,9.46,9.46,0,0,1,7.1,2.89l-1.4,1.51a7.91,7.91,0,0,0-5.72-2.5,7.14,7.14,0,0,0-7,7.46v.05c0,4.21,3,7.52,7,7.52a7.91,7.91,0,0,0,5.88-2.63l1.35,1.33a9.47,9.47,0,0,1-7.28,3.2A9.08,9.08,0,0,1,417.43,256.41Z" transform="translate(-80 -21.99)" fill="#fff"/><path d="M470.35,258.26l-7.57-11h2.5l6.14,9.1,6.19-9.1H480l-7.57,11v7.23h-2.08Z" transform="translate(-80 -21.99)" fill="#fff"/></svg>