<svg id="Layer_1" data-name="Layer 1" xmlns="http://www.w3.org/2000/svg" viewBox="0 0 21.12 21.06"><title>phone</title><path d="M493.5,989.49a.73.73,0,0,0-.44,0c-1.58.61-2.57,2.86-2.8,4.41-.73,5,3.24,9.38,6.89,12.24,3.24,2.54,9.46,6.72,13.14,2.69a3,3,0,0,0,1-2c-.09-1.23-1.23-2.1-2.1-2.77-.67-.5-2.07-1.87-2.95-1.84s-1.29.85-1.78,1.34l-.88.88c-.15.15-2-1.08-2.22-1.23a14.9,14.9,0,0,1-2.13-1.66,13.77,13.77,0,0,1-1.72-2,10.16,10.16,0,0,1-1.23-2.13s1-1.11,1.31-1.55c.61-.93,1.08-1.66.38-2.77a6.53,6.53,0,0,0-.93-1.08,17.77,17.77,0,0,0-1.93-1.69A4.12,4.12,0,0,0,493.5,989.49Z" transform="translate(-490.17 -989.47)" fill="#fff"/></svg>